<?xml version="1.0" encoding="utf-8"?>
<!-- Generator: Adobe Illustrator 25.2.1, SVG Export Plug-In . SVG Version: 6.00 Build 0)  -->
<!DOCTYPE svg PUBLIC "-//W3C//DTD SVG 1.1//EN" "http://www.w3.org/Graphics/SVG/1.1/DTD/svg11.dtd" [
	<!ENTITY st0 "fill:#3269F9;">
	<!ENTITY st1 "fill:#FFFFFF;">
]>
<svg version="1.1" id="Layer_1" xmlns="http://www.w3.org/2000/svg" xmlns:xlink="http://www.w3.org/1999/xlink" x="0px" y="0px"
	 viewBox="0 0 167.6 129" style="enable-background:new 0 0 167.6 129;" xml:space="preserve">
<g>
	<g>
		<path style="&st0;" d="M115.9,16.7c-10.1-6.5-18.8-3.9-26.4-0.2c-21.3,10.4-27.6,4.4-47.2,4.3c-23.4,0-27.1,18.6-21.5,33
			c2.3,5.9,5.2,12.1,3.1,18.5c-1.6,5-6.6,9.4-9.8,13.7c-11.6,15.5-5.4,38.3,25,41.5c18,1.9,28.4-5.1,43.1-14.2
			c13.9-8.6,27.5-8.9,43.4-7.8c38,2.7,65.8-36,6.8-65.1C123.1,35.9,124,21.9,115.9,16.7z"/>
		<path style="&st1;" d="M41.7,128.9c-0.9-0.1-1.8-0.1-2.7-0.2c-14.8-1.6-25.2-7.8-29.5-17.6c-3.6-8.2-2.2-17.8,3.7-25.7
			c1-1.3,2.1-2.6,3.3-4c2.6-3,5.2-6,6.3-9.3c1.8-5.5-0.4-11-2.5-16.2l-0.6-1.5C16.1,45,16.6,35.6,21,29c2.9-4.2,8.9-9.3,21.2-9.3
			c5.8,0,10.5,0.5,14.7,1c10,1.1,17.3,2,32-5.2c7.6-3.7,16.8-6.6,27.5,0.2l0,0c4.1,2.6,6.1,7.3,7.9,11.9c2,4.9,4,9.6,8.4,11.8
			c36.6,18,36,37.2,34,44.6c-3.9,14.3-21.7,24.1-41.3,22.7c-17.3-1.2-29.8-0.4-42.7,7.6l-1.9,1.2C68,123.5,57.7,129.9,41.7,128.9z
			 M47.9,22.2c-1.8-0.1-3.6-0.2-5.7-0.2c-8.9,0-15.6,2.9-19.3,8.3c-4,5.8-4.4,14.7-1.1,23.1l0.6,1.5c2.3,5.6,4.6,11.5,2.6,17.8
			c-1.2,3.7-4,7-6.7,10.1c-1.2,1.3-2.3,2.6-3.2,3.9c-5.4,7.3-6.7,16.1-3.5,23.5c3.9,9,13.8,14.8,27.7,16.3
			c16.8,1.8,26.7-4.3,40.5-12.9l1.9-1.2c14.8-9.1,29.3-9,44-7.9c0.2,0,0.4,0,0.5,0c18.4,1.1,34.9-7.9,38.4-21.1
			c3.9-14.5-8-29.8-32.8-42c-5.2-2.6-7.4-7.9-9.5-13c-1.8-4.4-3.5-8.6-7.1-10.8c-9.8-6.2-18.3-3.6-25.3-0.1
			C74.6,25,66.7,24.1,56.7,23C54,22.7,51.1,22.4,47.9,22.2z"/>
	</g>
	<g>
		<path d="M37.3,126.5c-3.4-0.2-7-0.8-11-1.9c-14.1-4-23.2-11.8-25.7-22c-2.1-8.5,0.9-17.5,7.9-24.2c1.2-1.1,2.5-2.2,3.9-3.4
			c3.1-2.5,6.3-5.1,7.9-8.3c2.8-5.3,1.5-11.2,0.3-16.8l-0.3-1.6c-1.9-9.4,0.1-18.7,5.4-24.1c5-5.1,12.6-7,22-5.4
			c5.7,1,10.3,2.3,14.3,3.5c9.8,2.9,16.9,4.9,32.8,0.3c8-2.3,17.4-3.6,26.6,4.8c3.5,3.2,4.6,8,5.6,12.8c1.1,5.1,2.3,10.4,6.5,13.4
			c32.7,23.8,28.9,42.2,25.7,49c-6.1,13.2-25,19.7-43.9,15c-14.1-3.5-28-6-43.7,0.3l-2.1,0.9C57.8,123.5,48.6,127.2,37.3,126.5z
			 M43.4,19.5C36.3,19.1,30.6,21,26.6,25c-5,5.2-7,14.1-5.1,23.1l0.3,1.6c1.2,5.8,2.5,11.9-0.4,17.6c-1.8,3.4-5,6-8.2,8.6
			c-1.4,1.1-2.7,2.2-3.9,3.3c-6.7,6.4-9.6,15-7.6,23.1c2.4,9.7,11.3,17.3,24.9,21.1c16.5,4.7,27.4,0.3,42.4-5.8l2.1-0.9
			c16-6.4,30.1-3.8,44.4-0.3c18.4,4.5,36.7-1.7,42.6-14.4c6.4-13.9-2.8-31.2-25.4-47.6c-4.6-3.3-5.8-8.8-7-14.1
			c-1.1-4.7-2.1-9.2-5.3-12.2l0,0c-8.8-8-17.8-6.8-25.5-4.5c-16.2,4.7-23.8,2.5-33.4-0.3c-4-1.2-8.5-2.5-14.1-3.5
			C46.2,19.7,44.8,19.6,43.4,19.5z"/>
	</g>
</g>
<polygon style="&st1;" points="43,4.2 39.7,3.1 35.5,7.4 35.5,71.7 39.2,81.2 107,82.9 136.6,80.7 137.9,73 139.3,12.3 136.2,3.1 
	84.6,1.3 "/>
<g>
	<path d="M139.4,39.4c-0.2-5.5-0.1-11,0-16.6c0.1-3.5,0.1-7-0.1-10.5c-0.1-2.8,0.3-6.4-0.4-9.1c-0.8-2.7-2.9-2.9-5.4-3
		c-6.5-0.3-13.1-0.1-19.7-0.1C99.3,0.1,84.7,0,70.1,0c-7.7,0-15.3,0.2-23,0.7c-2.8,0.2-7.4-0.3-9.6,1.6c-1.5,1.3-1.7,3.3-2,5.1
		c-0.7,4-0.8,8.2-1,12.3c-0.4,8.9-0.2,17.8-0.7,26.7c-0.4,7.2-0.2,14.4,0,21.6c0.1,4-1.2,10.6,2.2,13.6c3.5,3.1,11,1.8,15.2,1.9
		c7.7,0.2,15.4,0.5,23.1,0.6c14.4,0.2,28.9-0.3,43.3,0.3c5.5,0.2,11.6,0,17-0.9c3.2-0.6,4.3-2.5,4.6-5.6
		C140.6,65.1,139.8,52.1,139.4,39.4z M43,4.2C44.4,4,45.7,4,47.1,3.9C52.7,3.5,58.3,3.3,64,3.2c12.1-0.1,24.2,0.1,36.3,0.1
		c5.2,0,10.4,0,15.6,0.1c5.5,0,11.4-0.7,16.9,0.1c2.5,0.3,2.7,0.5,3.1,3.1c0.4,2.4,0.3,5.2,0.4,7.6c0,0.4,0,0.7,0,1.1
		C103.5,14.1,70.7,14,37.9,15c0.1-1.8,0.3-3.7,0.5-5.5C38.9,6,39.5,4.5,43,4.2z M136.5,63.4c-0.1,4.4,0,8.9-0.4,13.3
		c-0.3,3.2-1.6,3.1-4.5,3.5c-3,0.5-6.1,0.9-9.2,0.9c-11.3,0.3-22.8-0.3-34.1-0.2c-13.4,0-26.8-0.4-40.2-0.8c-4.2-0.1-10.7,0.4-11-5
		C37,72.2,37,69.1,37,66c-0.2-6.6-0.4-13.1,0-19.6c0.6-9.6,0.3-19.3,0.8-29c32.8-1,65.7-0.9,98.5,0.3c0,4.6-0.2,9.1-0.2,13.7
		C136,42.1,136.8,52.7,136.5,63.4z"/>
	<path d="M45.8,13c2-0.2,4-1.4,3.7-3.7c-0.3-2-1.7-3.4-3.8-3.5c-2,0-3.5,1.9-3.8,3.8C41.5,11.9,43.7,13.3,45.8,13z M44.4,9.7
		c0.2-0.6,0.6-1.5,1.3-1.5c0.7,0,1.1,0.3,1.3,0.9c0.3,1-0.3,1.2-1.2,1.4c-0.4,0.1-0.8,0.1-1.2-0.1C44.2,10.3,44.3,10.2,44.4,9.7z"/>
	<path d="M56,12.9c2.2,0.2,3.8-1.5,4.1-3.6c0.2-2.2-1.5-3.8-3.6-3.8c-2-0.1-4.1,1.3-4.2,3.4C52.1,11,53.9,12.7,56,12.9z M54.7,8.9
		c0.2-0.7,1.1-1,1.7-1c0.8,0,1.3,0.4,1.2,1.2C57.5,10,57,10.6,56,10.5C55.3,10.4,54.5,9.7,54.7,8.9z"/>
	<path d="M66.9,12.7c2-0.1,3.7-1.8,3.7-3.9c0-2-1.9-3.8-3.9-3.7c-2.2,0.1-3.8,1.9-3.9,4.1C62.6,11.5,64.8,12.9,66.9,12.7z M66.7,7.6
		c1.8-0.1,2,2.4,0.3,2.7c-0.7,0.1-1.7-0.2-1.8-0.9C65.1,8.5,65.8,7.6,66.7,7.6z"/>
	<path d="M73.3,28.3c-3.4-2.7-8.1-0.4-11.1,1.7c-5.7,3.9-10.3,8.8-15.6,13.1c-8.1,7.1,1.7,14.8,7.3,19.1c3.8,2.9,8.4,6.8,13,8.1
		c3.1,0.9,7.8-0.3,8-4.2c0.2-3.8-5.7-7.7-8.3-9.9c-1.6-1.4-3.2-2.7-4.9-3.9c-0.7-0.5-1.5-1-2.3-1.5c-1.7-1.1-2.3-0.9-1.3-2.5
		C60.8,44.3,81,34.6,73.3,28.3z M55.6,51.1c1.8,2.2,5.7,3.8,8,5.7c1.8,1.5,3.4,3,5.1,4.6c0.7,0.6,2.7,1.9,3,2.9
		c1.4,4.5-2.3,4.2-4.5,3.5c0.2-0.2,0.4-0.3,0.6-0.5c0.5-0.4,0.8-1,0.4-1.7c-0.3-0.5-1.1-0.8-1.7-0.4c-0.5,0.4-0.9,0.7-1.4,1.1
		c-0.2,0.1-0.3,0.3-0.4,0.5c-0.5-0.3-1-0.5-1.5-0.8c0.2-0.1,0.4-0.3,0.5-0.4c1.3-0.8,0.1-2.9-1.2-2.1c-0.5,0.3-1,0.7-1.5,1.1
		c-0.6-0.4-1.2-0.8-1.8-1.3c0.3-0.2,0.7-0.4,1-0.5c1.4-0.7,0.2-2.8-1.2-2.1c-0.6,0.3-1.3,0.7-1.9,1c-0.4-0.3-0.8-0.6-1.1-0.9
		c0.2-0.1,0.4-0.3,0.6-0.4c1.4-0.8,0.1-2.9-1.2-2.1c-0.5,0.3-0.9,0.6-1.4,1c-0.5-0.4-1.1-0.9-1.8-1.4c0.3-0.2,0.6-0.5,1-0.6
		c0.6-0.3,0.7-1.1,0.4-1.7c-0.4-0.6-1.1-0.7-1.7-0.4c-0.6,0.3-1.2,0.7-1.7,1.2c-0.4-0.4-0.9-0.8-1.3-1.2c0.4-0.3,0.8-0.5,1.2-0.8
		c1.3-0.9,0.1-3-1.2-2.1c-0.5,0.3-1,0.7-1.5,1c-0.6-0.8-1-1.6-1.2-2.4c0.4,0,0.8,0,1.2,0c1.6,0,1.6-2.4,0-2.4c-0.4,0-0.9,0-1.3,0
		c0.2-0.7,0.5-1.5,1.1-2.3c0.4,0.5,0.9,0.9,1.4,1.3c0.5,0.4,1.3,0.1,1.7-0.4c0.4-0.6,0.1-1.3-0.4-1.7c0.2,0.1-0.2-0.2-0.2-0.2
		c-0.2-0.1-0.3-0.3-0.4-0.5c-0.1-0.1-0.2-0.2-0.3-0.3c0.4-0.3,0.8-0.7,1.2-1c0.5,0.5,0.9,0.9,1.3,1.4c0.4,0.5,1.3,0.4,1.7,0
		c0.5-0.5,0.4-1.2,0-1.7c-0.4-0.5-0.8-0.9-1.2-1.3c0.6-0.5,1.2-1,1.7-1.6c0.5,0.4,0.9,0.8,1.4,1.2c1.1,1.1,2.8-0.6,1.7-1.7
		c-0.4-0.4-0.8-0.8-1.3-1.2c0.7-0.6,1.3-1.2,2-1.7c0.4,0.5,0.9,1,1.3,1.5c1,1.2,2.8-0.6,1.7-1.7c-0.4-0.4-0.8-0.8-1.2-1.2
		c0.3-0.2,0.6-0.5,0.9-0.7c0.4-0.3,0.9-0.7,1.3-1c0.2,0.3,0.4,0.6,0.7,0.9c0.4,0.5,1.1,0.8,1.7,0.4c0.5-0.3,0.8-1.1,0.4-1.7
		c-0.3-0.4-0.6-0.8-0.9-1.2c0.5-0.4,1.1-0.8,1.7-1.1c0,0,0.1,0.1,0.1,0.1c0.4,0.4,0.7,0.7,1.1,1.1c1.1,1.1,2.8-0.6,1.7-1.7
		c-0.2-0.2-0.4-0.4-0.6-0.6c1.5-0.6,2.8-0.6,3.8,1.3c1.3,2.3-0.1,2.9-1.7,4.5c-4,4.1-9.1,6.9-13.2,10.8
		C54.8,48.1,54.2,49.4,55.6,51.1z"/>
	<path d="M119.4,35.6c-3.8-2.9-8.4-6.8-13-8.1c-3.1-0.9-7.8,0.3-8,4.2c-0.2,3.8,5.7,7.7,8.3,9.9c1.6,1.4,3.2,2.7,4.9,3.9
		c0.7,0.5,1.5,1,2.3,1.5c1.7,1.1,2.3,0.9,1.3,2.5c-2.6,4.1-22.8,13.7-15.1,20c3.4,2.7,8.1,0.4,11.1-1.7c5.7-3.9,10.3-8.8,15.6-13.1
		C134.9,47.5,125.1,39.8,119.4,35.6z M125.1,52.9c-4.1,3.3-7.6,7.1-11.9,10.2c-1.9,1.3-3.5,3-5.6,4c-2.2,1.1-4.1,1.9-5.4-0.5
		c-0.5-1-0.6-1.7-0.4-2.3c0.6,0.5,1.2,0.9,1.8,1.4c0.5,0.4,1.3,0.1,1.7-0.4c0.4-0.6,0.1-1.3-0.4-1.7c-0.5-0.4-1-0.7-1.4-1.1
		c0.1-0.1,0.3-0.3,0.5-0.4c0.4-0.4,0.7-0.7,1.1-1c0.5,0.5,1,1.1,1.5,1.5c0.5,0.4,1.2,0.5,1.7,0c0.4-0.4,0.5-1.3,0-1.7
		c-0.5-0.4-1-0.9-1.4-1.4c0.6-0.5,1.2-0.9,1.8-1.4c0.5,0.6,1,1.3,1.6,1.9c1.1,1.1,2.8-0.6,1.7-1.7c-0.5-0.5-0.9-1.1-1.4-1.6
		c0.5-0.4,1-0.7,1.5-1.1c0.5,0.4,0.8,0.9,1.3,1.4c0.4,0.5,1.3,0.4,1.7,0c0.5-0.5,0.4-1.2,0-1.7c-0.3-0.4-0.7-0.8-1-1.2
		c0.6-0.5,1.3-1,1.9-1.6c0.3,0.2,0.6,0.5,0.9,0.8c1.1,1.1,2.8-0.6,1.7-1.7c-0.2-0.3-0.5-0.5-0.8-0.7c0.4-0.5,0.8-1,0.9-1.5
		c0.5,0,1,0.1,1.5,0.1c0.7,0,1.2-0.6,1.2-1.2c0-0.7-0.6-1.2-1.2-1.2c-0.7,0-1.4-0.1-2.1-0.1c0,0,0,0,0,0c-0.3-0.4-0.7-0.7-1.1-1.1
		c0.4-0.2,0.8-0.4,1.2-0.5c0.6-0.3,0.7-1.1,0.4-1.7c-0.4-0.6-1.1-0.7-1.7-0.4c-0.7,0.3-1.5,0.7-2.2,1c-0.4-0.2-0.8-0.5-1.2-0.7
		c0.3-0.2,0.7-0.3,1-0.5c0.6-0.3,0.7-1.1,0.4-1.7c-0.4-0.6-1.1-0.7-1.7-0.4c-0.7,0.3-1.3,0.6-2,1c-0.1,0-0.1,0.1-0.1,0.1
		c-0.4-0.3-0.8-0.5-1.1-0.8c-0.1-0.1-0.3-0.3-0.4-0.4c0.5-0.3,0.9-0.5,1.4-0.7c0.6-0.3,0.7-1.1,0.4-1.7c-0.4-0.6-1.1-0.7-1.7-0.4
		c-0.7,0.3-1.4,0.7-2.1,1.1c-0.5-0.4-0.9-0.9-1.4-1.3c0.3-0.2,0.5-0.3,0.8-0.4c0.6-0.3,1-0.8,0.8-1.5c-0.2-0.6-0.9-1.1-1.5-0.8
		c-0.7,0.3-1.4,0.7-2,1.1c-0.3-0.3-0.8-0.6-1.2-0.9c0.3-0.3,0.6-0.5,1-0.7c1.4-0.7,0.2-2.8-1.2-2.1c-0.4,0.2-0.8,0.5-1.2,0.8
		c-1.1-4.3,2.9-3.7,5-2.9c4.3,1.6,8.5,5.2,12.2,8C123,41.3,131.6,47.2,125.1,52.9z"/>
	<path d="M89.8,27c-3.6-0.1-4.6,3.1-5.6,6c-2.2,6.6-3.9,13.4-5.1,20.2c-0.7,3.6-5.1,18.9,3,17.9c3.2-0.4,5.2-3.7,6.2-6.4
		c2.1-5.7,3.3-12,4.5-17.9c0.6-2.9,1.2-5.8,1.7-8.7c0.4-2,1.4-4.5,1.2-6.6C95.3,28.2,92.8,27.1,89.8,27z M89.7,49.5
		c-0.6,2.6-1.2,5.3-1.9,7.9c-0.9,3.3-1.6,10-5.7,9.9c-2.3-0.1-2.4-0.3-2.3-1.7c0.3,0.1,0.6,0.1,0.9,0.2c0.6,0.2,1.3-0.2,1.5-0.8
		c0.2-0.7-0.2-1.3-0.8-1.5c-0.4-0.2-0.9-0.2-1.3-0.3c0-0.4,0.1-0.9,0.2-1.3c0.5,0.1,1.1,0.2,1.6,0.2c1.6,0,1.6-2.4,0-2.4
		c-0.4,0-0.8-0.1-1.2-0.1c0-0.2,0.1-0.5,0.1-0.7c0-0.1,0-0.3,0.1-0.4c0.5,0.1,1.1,0.2,1.6,0.3c1.5,0.4,2.2-2,0.6-2.3
		C82.3,56.1,81.7,56,81,56c0.1-0.7,0.2-1.4,0.4-2.1c0.7,0.1,1.4,0.3,2,0.5c0.6,0.2,1.3-0.3,1.5-0.8c0.2-0.7-0.2-1.3-0.8-1.5
		c-0.7-0.3-1.4-0.4-2.2-0.5c0.1-0.5,0.2-1,0.3-1.6c0.6,0.1,1.1,0.3,1.7,0.4c1.5,0.3,2.2-2,0.6-2.3c-0.6-0.1-1.2-0.3-1.8-0.4
		c0.1-0.5,0.2-1.1,0.3-1.8c0.4,0.1,0.8,0.2,1.1,0.3c1.5,0.4,2.2-1.9,0.6-2.3c-0.4-0.1-0.9-0.2-1.3-0.3c0.1-0.3,0.1-0.6,0.2-0.9
		c0.7,0.1,1.4,0.3,2,0.4c0.6,0.1,1.3-0.2,1.5-0.8c0.2-0.6-0.2-1.4-0.8-1.5c-0.7-0.2-1.4-0.3-2.1-0.5c0.1-0.5,0.2-1,0.4-1.4
		c0.5,0.1,0.9,0.2,1.4,0.3c1.5,0.4,2.2-1.9,0.6-2.3c-0.5-0.1-0.9-0.2-1.4-0.3c0.1-0.3,0.2-0.6,0.3-0.9c0.4,0.1,0.9,0.2,1.3,0.3
		c0.6,0.2,1.3-0.3,1.5-0.8c0.2-0.7-0.2-1.3-0.8-1.5c-0.4-0.1-0.7-0.2-1.1-0.3c0.2-0.4,0.3-0.7,0.5-1c0.4,0.2,0.8,0.3,1.2,0.4
		c0.6,0.1,1.3-0.2,1.5-0.8c0.2-0.6-0.2-1.4-0.8-1.5c-0.1,0-0.3-0.1-0.4-0.1c0.5-0.4,0.9-0.7,1.4-0.7C95.5,29.6,90.4,46.7,89.7,49.5z
		"/>
</g>
</svg>
