<?xml version="1.0" encoding="utf-8"?>
<!-- Generator: Adobe Illustrator 25.2.1, SVG Export Plug-In . SVG Version: 6.00 Build 0)  -->
<!DOCTYPE svg PUBLIC "-//W3C//DTD SVG 1.1//EN" "http://www.w3.org/Graphics/SVG/1.1/DTD/svg11.dtd" [
	<!ENTITY st0 "fill:#3269F9;">
	<!ENTITY st1 "fill:#FFFFFF;">
]>
<svg version="1.1" id="Layer_1" xmlns="http://www.w3.org/2000/svg" xmlns:xlink="http://www.w3.org/1999/xlink" x="0px" y="0px"
	 viewBox="0 0 158.7 119.4" style="enable-background:new 0 0 158.7 119.4;" xml:space="preserve">
<g>
	<g>
		<path style="&st0;" d="M150.6,67.6c4.1-8.5,11.2-21,3.3-29.9c-6.8-7.7-19.7-5.8-29-5.1c-26.6,2.1-46.5-3.6-57.1-13.9
			C52,3.4,37.3,4.4,30.7,11.7C14.7,29,35.5,54.6,21.7,64.9C3.7,78.5-5.5,88.9,7,105.5c11.5,15.3,57.5,5.5,79.6,5.2
			c10.9-0.2,21,1.7,31.9,3.4c11,1.7,21.3-1.4,25.3-12.2C147.8,90.7,145.4,78.4,150.6,67.6z"/>
		<path style="&st1;" d="M20.9,113.9c-6.6-1.3-11.9-3.7-14.9-7.8C-7.7,87.9,4.1,76.7,21,64c6-4.5,4.8-12.4,3.4-21.5
			c-1.6-10.4-3.4-22.1,5.3-31.6c3.1-3.4,7.7-5.4,12.9-5.5c8.3-0.2,17.5,4.2,26,12.4c11,10.6,31.5,15.5,56.1,13.5
			c0.8-0.1,1.5-0.1,2.3-0.2c9.4-0.8,21-1.8,27.7,5.7c7.8,8.9,2,20.7-2.3,29.4c-0.3,0.6-0.6,1.2-0.9,1.8c-2.7,5.7-3.3,11.7-3.9,18.1
			c-0.5,5.3-1,10.9-2.9,16.1c-3.7,10.2-13.4,14.9-26.6,12.9c-1.5-0.2-3-0.5-4.5-0.7c-9.2-1.4-17.9-2.8-27.2-2.7
			c-5.4,0.1-12.4,0.7-19.9,1.5C51.6,114.8,33.8,116.5,20.9,113.9z M47.5,8.2c-1.6-0.3-3.2-0.5-4.7-0.4c-4.5,0.1-8.5,1.8-11.2,4.7
			c-8,8.7-6.3,19.4-4.8,29.7c1.4,9.4,2.8,18.3-4.3,23.7C3.6,80.1-3.4,89.6,8,104.8c8.2,10.9,36.1,8.3,58.6,6.2
			c7.5-0.7,14.5-1.4,20.1-1.5c9.5-0.1,18.3,1.2,27.6,2.7c1.5,0.2,3,0.5,4.5,0.7c11.9,1.8,20.6-2.3,23.9-11.4
			c1.8-5,2.3-10.4,2.8-15.6c0.6-6.3,1.2-12.8,4.1-18.9l0,0c0.3-0.6,0.6-1.2,0.9-1.8c4-8.1,9.4-19.2,2.6-26.9
			c-5.8-6.6-16.8-5.6-25.6-4.9c-0.8,0.1-1.6,0.1-2.3,0.2c-25.4,2-46.6-3.1-58.1-14.2C60.6,13.3,53.8,9.4,47.5,8.2z"/>
	</g>
	<g>
		<path d="M29,103.6c-11.7-2.3-21.5-6-24.8-12.8c-9.2-18.6,3.6-26.7,21.2-35.4c6.7-3.3,7-10.8,7.3-19.6c0.4-9.6,0.9-20.5,10.4-27.6
			c3.4-2.5,7.8-3.5,12.5-2.7c7.5,1.2,15.1,6.7,21.4,15.5c8.3,11.7,26.5,19.7,49.8,22c0.7,0.1,1.4,0.1,2.2,0.2
			c8.7,0.8,19.5,1.8,24.1,9.6c5.4,9.1-2,18.8-7.4,25.9c-0.4,0.5-0.8,1-1.1,1.5c-3.6,4.8-5.3,10.5-6.9,16.1
			c-1.4,4.8-2.9,9.7-5.5,14.2c-5.1,8.5-14.7,11.1-26.2,7.1c-1.3-0.5-2.7-0.9-4-1.4c-8.3-2.9-16.1-5.6-24.7-7
			c-5.1-0.8-11.7-1.4-18.7-2C49,106.4,38.4,105.5,29,103.6z M56.2,6.7c-0.2,0-0.5-0.1-0.7-0.1C51.2,5.9,47,6.8,43.9,9.1
			c-9.1,6.8-9.6,17.4-10,26.8c-0.4,8.7-0.7,16.9-8,20.5C5.5,66.4-2.8,74,5.2,90.3c5.7,11.7,32.2,14,53.5,15.8c7,0.6,13.6,1.2,18.7,2
			c8.7,1.5,16.6,4.2,24.9,7.1c1.3,0.5,2.7,0.9,4,1.4c11,3.8,20,1.3,24.9-6.7c2.6-4.3,4-9.2,5.4-13.9c1.7-5.6,3.4-11.4,7.1-16.4l0,0
			c0.4-0.5,0.7-1,1.1-1.5c5.2-6.9,12.4-16.2,7.3-24.7c-4.3-7.3-14.8-8.2-23.2-9c-0.8-0.1-1.5-0.1-2.2-0.2
			c-23.7-2.4-42.2-10.6-50.7-22.5C70.2,13.3,63.2,8,56.2,6.7z"/>
	</g>
</g>
<polygon style="&st1;" points="58.8,40.5 45.1,40 42.9,41.3 42.4,71.1 45.7,75.3 62.3,75.3 64.6,72.9 65.1,43.3 61.1,40 "/>
<path style="&st1;" d="M81,23.1l13.4,0.7l4.1,2.7L99,70.5l-1.5,4.3l-13.1,0.8l-5.5-0.4l-2-3c0,0,0.1-13.2,0-13.5
	c-0.1-0.3,0.4-34.6,0.4-34.6L81,23.1z"/>
<polygon style="&st1;" points="112.2,3.9 115.9,1.3 130.2,2.6 133.8,5.2 133.8,48.5 133.8,71.4 131.1,75 119.4,75.7 113.6,74.6 
	111.4,71.9 "/>
<g>
	<path d="M55.9,77.1c4.5,0.1,9.6,0.6,10.1-4.9c0.6-6.7,0.1-13.8,0.2-20.6c0-3.3,1.9-10.9-2.2-12.5c-2.3-0.9-6.1-0.4-8.6-0.7
		c-2.5-0.3-4.8-0.3-7.3-0.2c-4.3,0.1-6.5,0.4-6.5,5c0,6.6-0.6,13.2-0.5,19.8c-0.3,3-0.8,9.2,0.9,11.8C44.5,78.6,52.3,77,55.9,77.1z
		 M47.5,41.4c3.4-0.4,6.8,0.2,10.1,0.5c1.4,0.1,4.4-0.4,5.3,0.8c0.8,1,0,6.1,0,7.3c0,4-0.1,7.9-0.1,11.9c0,2.4,0,4.9-0.1,7.3
		c0,4-1.3,4.7-5.4,4.7c-2.5,0-7.7,0.9-10.7-0.2c0.8-0.7,1.6-1.5,2.3-2.3c1-1.2-0.7-3-1.7-1.7c-0.8,0.9-1.6,1.7-2.5,2.5
		c0-0.1-0.1-0.1-0.1-0.1c-0.4-0.9-0.5-2.4-0.6-3.9c1.4-1.2,2.7-2.4,4.1-3.5c1.2-1-0.5-2.8-1.7-1.7c-0.8,0.7-1.5,1.3-2.3,2
		c0-0.7,0.1-1.3,0.1-1.8c0-0.7,0-1.5,0-2.2c1.6-1.6,3.3-3,5.1-4.4c1.2-1-0.5-2.7-1.7-1.7c-1.1,0.9-2.2,1.8-3.2,2.7
		c0-0.9,0.1-1.9,0.2-2.8c1.5-1.2,3-2.4,4.5-3.7c1.2-1-0.5-2.7-1.7-1.7c-0.9,0.7-1.7,1.4-2.6,2.1c0-0.5,0.1-1.1,0.1-1.6
		c0-0.4,0-0.9,0-1.3c1.3-1,2.6-1.9,3.9-2.9c1.3-0.9,0-3.1-1.2-2.1c-0.9,0.7-1.8,1.3-2.7,2c0-0.4,0-0.8,0-1.3
		C45,41.7,45.1,41.7,47.5,41.4z"/>
	<path d="M75.8,74c1.6,3.7,6.7,2.9,9.9,2.8c3.3-0.1,10.3,1.2,13.2-1c2.8-2.2,1.3-9.9,1.3-12.9c0-7.3,0.1-14.6,0.1-21.9
		c0-3.6,0-7.1,0.1-10.7c0-1.6,0.5-4.6-0.5-6.1c-1.7-2.6-8.2-1.7-10.9-2.1c-2.8-0.3-9.6-1.3-12.1,0.6c-2.7,2-1.2,9.2-1.2,12
		c-0.2,7.6-0.7,15.3-0.6,22.9c-0.2,3.2-0.1,6.3,0.1,9.4C75.4,69,75,72,75.8,74z M78.9,25.9c1.5-2.3,10.1-0.5,12.2-0.2
		c2.4,0.3,5-0.5,6,1.6c0.8,1.9,0,6.5,0,8.5c0,6.4-0.1,12.8-0.1,19.3c0,3.1,0,6.3,0,9.4c0,1.7,0.9,6.8-0.1,8.2
		c-1,1.4-8.8,1.4-13.1,1.1c1.2-0.9,2.4-1.7,3.6-2.6c1.3-0.9,0-3-1.2-2.1c-1.9,1.4-3.9,2.8-5.8,4.2c-0.9-0.4-1.4-1.1-1.6-1.9
		c2.4-1.8,4.7-3.6,6.9-5.6c1.2-1-0.5-2.8-1.7-1.7c-1.7,1.5-3.5,2.9-5.4,4.3c0-0.5,0-1,0-1.5c0-0.5-0.1-1-0.1-1.5
		c2.2-2.4,4.6-4.5,7.2-6.4c1.3-0.9,0.1-3-1.2-2.1c-2.2,1.5-4.2,3.3-6.1,5.1c0-0.9,0-1.7,0-2.6c1.9-2.1,4-4,6.2-5.7
		c1.2-1-0.5-2.7-1.7-1.7c-1.5,1.2-3,2.5-4.3,3.8c0-1.3,0-2.6,0-3.9c1.7-1.8,3.7-3.4,5.8-4.8c1.3-0.9,0.1-3-1.2-2.1
		c-1.6,1-3.1,2.2-4.5,3.4c0-1,0.1-2,0.1-3c1.8-1.9,3.7-3.6,5.9-5.1c1.3-0.9,0.1-3-1.2-2.1c-1.6,1.1-3.1,2.3-4.5,3.6
		c0-0.5,0-1,0.1-1.5c0-0.5,0-1.1,0.1-1.6c1.6-1.9,3.3-3.6,5.4-5c1.3-0.9,0.1-3-1.2-2.1c-1.4,1-2.8,2.1-4,3.4c0-0.8,0-1.6,0-2.4
		c1.4-1.5,3-2.8,4.7-3.9c1.3-0.9,0.1-3-1.2-2.1c-1.2,0.9-2.4,1.8-3.5,2.8C78.8,28,78.6,26.4,78.9,25.9z"/>
	<path d="M110.5,71.1c0.2,2.6,0.5,4.3,3.2,5.3c2.6,1,6,0.6,8.7,0.7c3.4,0.1,7.1,0.3,10.3-1.1c4.2-1.9,2.5-8.8,2.5-12.7
		c0-8,0.1-16.1,0.1-24.1c0-8.1,0.1-16.3,0.1-24.4c0-3.5,1.8-12-2.2-13.6c-2.8-1.1-7.1-0.7-10.2-0.9c-2.8-0.2-6.8-0.5-9.5,0.2
		c-4.4,1.2-2.6,7.4-2.7,11c-0.1,15.3-0.9,30.7-0.6,46.1C109.9,62,110.1,66.7,110.5,71.1z M114,5.3c0.6-2.6,5.3-1.9,7.8-1.8
		c2.1,0.1,7.3,0,9,0.8c2,0.9,1.4,2.6,1.4,4.9c0,5.6-0.1,11.2-0.1,16.8c-0.1,13-0.1,26-0.2,39c0,1.8,0.7,5.7,0,7.3
		c-1.2,2.6-7.2,1.8-9.5,1.7c-1.3,0-2.9,0.1-4.4,0c0.5-0.5,1-0.9,1.5-1.4c1.1-1.2-0.7-2.9-1.7-1.7c-0.8,0.9-1.7,1.7-2.6,2.4
		c-0.3-0.2-0.5-0.4-0.7-0.6c1.2-1.3,2.4-2.5,3.6-3.7c1.2-1.1-0.6-2.8-1.7-1.7c-1,0.9-1.9,1.9-2.8,2.8c-0.1-0.7-0.2-1.5-0.3-2.3
		c1.4-1.2,2.9-2.4,4.3-3.5c1.2-1-0.5-2.7-1.7-1.7c-0.9,0.7-1.8,1.5-2.7,2.2c0-0.5,0-1,0-1.5c2.2-1.6,4.3-3.3,6.4-5
		c1.2-1-0.5-2.7-1.7-1.7c-1.5,1.2-3,2.4-4.5,3.6c0-0.8,0.1-1.6,0.2-2.3c0-0.4,0-0.8,0-1.2c1.7-1.5,3.4-2.9,5.2-4.1
		c1.3-0.9,0.1-3-1.2-2.1c-1.4,0.9-2.7,2-4,3c0-0.9,0-1.8,0-2.6c1.5-1.1,3-2.3,4.5-3.5c1.2-1-0.5-2.7-1.7-1.7
		c-0.9,0.7-1.8,1.4-2.7,2.1c0-1,0-2,0-2.9c1.6-1.5,3.3-3,5.2-4.2c1.3-0.9,0.1-3-1.2-2.1c-1.4,0.9-2.6,2-3.9,3c0-1.4,0.1-2.9,0.1-4.3
		c1.2-1.1,2.4-2.1,3.7-3.1c0.5-0.4,0.8-1.1,0.4-1.7c-0.3-0.5-1.1-0.8-1.7-0.4c-0.8,0.6-1.6,1.2-2.4,1.9c0-0.7,0-1.4,0-2
		c1.8-1.4,3.8-2.7,5.8-3.9c1.4-0.8,0.1-2.9-1.2-2.1c-1.5,0.9-3,1.9-4.5,2.9c0-1,0-1.9,0.1-2.9c0-0.1,0-0.2,0-0.3
		c1.4-1.2,2.8-2.5,4.2-3.7c1.2-1.1-0.6-2.8-1.7-1.7c-0.8,0.7-1.6,1.4-2.4,2.1c0-1.2,0-2.5,0.1-3.7c1.1-1.1,2.3-2.2,3.5-3.2
		c0.5-0.4,0.4-1.3,0-1.7c-0.5-0.5-1.2-0.4-1.7,0c-0.6,0.5-1.2,1-1.8,1.5c0-1.1,0-2.1,0-3.2c1.6-1.2,3.2-2.5,4.6-3.8
		C120,6.7,118.2,5,117,6c-1,0.9-2,1.7-3,2.5C114,7.4,113.8,6.2,114,5.3z"/>
	<path d="M137.1,81.1c-16.1,0.6-32.3,0.7-48.4,0.4c-15.3-0.3-30.6-1.4-45.9-1.1c-1.6,0-5.2,0.7-6.3-0.1c-1.4-0.9-1.3-4.4-1.4-5.8
		c-0.2-3.4-0.3-6.9-0.4-10.3c-0.2-6.8-0.2-13.6-0.1-20.4C34.7,29.9,35,16,34.7,2.2c0-2.1-3.3-2.1-3.3,0c0.3,15.3-0.1,30.5-0.2,45.7
		c-0.1,7.3,0,14.5,0.3,21.8c0.2,4.4-1.3,12.1,4,13.8c2.7,0.9,6.2,0.2,9,0.2c4-0.1,7.9,0,11.9,0.1c8.7,0.4,17.4,0.7,26.1,0.9
		c18.2,0.5,36.4,0.5,54.7-0.2C139.2,84.3,139.2,81,137.1,81.1z"/>
</g>
</svg>
