<?xml version="1.0" encoding="utf-8"?>
<!-- Generator: Adobe Illustrator 25.2.1, SVG Export Plug-In . SVG Version: 6.00 Build 0)  -->
<!DOCTYPE svg PUBLIC "-//W3C//DTD SVG 1.1//EN" "http://www.w3.org/Graphics/SVG/1.1/DTD/svg11.dtd" [
	<!ENTITY st0 "fill:#3269F9;">
	<!ENTITY st1 "fill:#FFFFFF;">
]>
<svg version="1.1" id="Layer_1" xmlns="http://www.w3.org/2000/svg" xmlns:xlink="http://www.w3.org/1999/xlink" x="0px" y="0px"
	 viewBox="0 0 144.3 153.3" style="enable-background:new 0 0 144.3 153.3;" xml:space="preserve">
<g>
	<g>
		<g>
			<path style="&st0;" d="M128.2,103.3c-17.6-11.5,4.9-27.2-6.3-48.4c-8.2-15.3-33.6-14.8-49.6,0.9C59.8,68,51.7,73.7,40.6,74.7
				c-14.4,1.3-24.9,4.7-31.7,13.1c-6.3,7.8-8.4,24.1,3.8,31.9c25.8,16.6,44.5,0.1,74.6,20.6c22.5,15.4,39.3,14.2,48.3,6.3
				C147.4,136.5,146.3,115.1,128.2,103.3z"/>
			<path style="&st1;" d="M16.5,123c-1.4-0.7-2.8-1.5-4.2-2.5c-4.9-3.2-8-7.9-9-13.7c-1.1-6.7,0.8-14.4,4.9-19.5
				c6.3-7.9,16-11.9,32.3-13.4c11.2-1,19.3-7.1,31.1-18.7c9.4-9.2,22.4-13.8,34-12c7.7,1.2,13.8,5.2,17,11.3
				c5.5,10.4,3.2,19.3,1.2,27.3c-2.2,8.5-3.9,15.2,4.8,20.8c9.2,6,14.8,15,15.5,24.7c0.6,7.9-2.3,15.3-7.9,20.1
				c-11.1,9.7-29.6,7.3-49.4-6.2c-15.7-10.7-28.3-11.2-40.4-11.7C36.6,129,27.1,128.6,16.5,123z M113,47.4c-2.3-1.2-4.9-2-7.7-2.5
				c-11-1.7-23.5,2.7-32.5,11.5C60.8,68.3,52.5,74.5,40.7,75.6c-15.8,1.5-25.1,5.3-31,12.8c-3.7,4.7-5.6,12-4.6,18.1
				c0.9,5.3,3.7,9.6,8.2,12.5c12,7.7,22.3,8.1,33.3,8.6c12.4,0.5,25.2,1.1,41.4,12.1c19.2,13.1,36.8,15.5,47.2,6.4
				c5.1-4.5,7.8-11.3,7.3-18.6c-0.6-9.1-6-17.7-14.7-23.3c-9.8-6.4-7.7-14.4-5.6-22.8c1.9-7.6,4.1-16.2-1.1-26
				C119.3,51.9,116.5,49.2,113,47.4z"/>
		</g>
		<g>
			<path d="M10.6,131c-4.6-2.4-7.8-6.3-9.5-11.4c-2.1-6.4-1.3-14.1,1.9-19.7C8,91.3,16.9,86,32.7,82c11.1-2.8,18.2-10,28.2-23.3
				c7.8-10.4,19.9-16.8,31.5-16.8c7.7,0,14.1,3,18.2,8.4c6.9,9.3,6,18.4,5.2,26.5c-0.9,8.9-1.6,15.9,8.2,20.3c0,0,0,0,0,0
				c9.9,4.5,16.7,12.4,18.8,21.8c1.7,7.6,0,15.2-4.7,20.7c-9.4,11-27.8,11.5-49.3,1.1c-17.2-8.3-29.8-6.9-42-5.6
				c-11.1,1.2-21.6,2.4-34.9-3.6C11.4,131.4,11,131.2,10.6,131z M103.3,45.4c-3.2-1.7-6.9-2.6-11-2.6c-11.3,0-23.1,6.3-30.7,16.4
				C51.5,72.8,44.2,80.1,32.9,82.9C17.4,86.8,8.7,92,3.8,100.4c-3,5.3-3.8,12.9-1.8,19c1.7,5.2,5.2,9.2,10.2,11.4
				c13.1,5.9,23.5,4.7,34.5,3.5c12.3-1.3,25-2.7,42.4,5.7c21.1,10.1,39.1,9.8,48.2-0.9c4.5-5.3,6.1-12.6,4.5-19.9
				c-2-9.1-8.7-16.8-18.3-21.2l0,0c-10.3-4.7-9.6-12.4-8.7-21.2c0.8-7.9,1.7-16.8-5-25.8C108.1,48.6,105.9,46.8,103.3,45.4z"/>
		</g>
	</g>
	<polygon style="&st1;" points="79.3,24 66,24 54.6,34.2 47,43.1 45.5,54.3 45.5,65.7 59.6,84 62.6,96 64.2,110 74.1,112.7 
		74.8,115.8 83.9,116.4 85.6,112.3 97.7,110.2 97.3,96.3 98.1,83 108.4,71.7 114.1,58.7 108.7,45.7 104.6,30.9 92,24.6 	"/>
	<g>
		<path d="M60.1,26.5c-12.4,7.8-19.9,25-14.7,39.2c1.7,4.6,3.8,9.1,6.7,13.1c1.5,2.1,3.2,3.9,4.8,5.8c2.5,2.8,3.2,5,4.2,8.4
			c0.4,1.4,0.8,2.4,1.4,3.1c-1.1,1.2-1.5,2.9-0.6,4.4c-2.2,2.9-1.2,4.6,1.1,5.7c-3.6,5.5,4,6.6,11,6.6c0.1,1.1,0.3,2.2,0.7,3.1
			c0.7,1.4,2.6,1.6,4,1.5c1.6,0,3.8-0.2,5.1-1c1.3-0.8,1.6-2.6,1.7-4.1c4,0.1,10.1,0.4,12.1-2.1c1.2-1.6,0.6-3-0.5-4.1
			c1.9-1,2.7-2.7,1.1-5.2c0.9-1.4,0.4-3.1-1.1-4.5c0.3-0.3,0.5-0.7,0.8-1.2c0.9-1.9,0.4-4,0.8-6c0.7-3,2.7-4.6,4.3-7
			c2.4-3.6,5.8-7.1,7.7-10.9c6.2-12.7,3.6-30.3-6.2-40.3C92.6,18.7,74.5,17.5,60.1,26.5z M76.6,51.9c0.3-2.1,1.5-3.2,3.4-3.6
			c1.4,1.1,1.9,2.5,1.5,4.2c0.1,1.9-0.8,3.7-2.2,5.1C77.6,56.1,76.4,54,76.6,51.9z M79.1,61c1.9,1.5,4,2.7,5.9,3.3
			c-2.8,9.7-2.2,21.5-1.6,31.1c-1.2,0-2.4-0.1-3.3-0.1c-1.5,0-3.1,0-4.8-0.1C75.2,91.1,75.6,75,73,63.9C75.3,63.2,77.4,62.1,79.1,61
			z M80.1,98.7c4.1,0,8.2-0.2,12.3-0.6c1-0.1,1.9-0.2,2.7-0.4c2.5,2.5-4.8,3.1-6.5,3.1c-2.8,0.1-5.5,0-8.3,0
			c-2.5-0.1-5.1-0.2-7.6-0.3c-1.7-0.1-10.8-1.2-7.7-3.1c0.3,0.1,0.7,0.2,1,0.2C70.5,98.4,75.4,98.7,80.1,98.7z M94.5,104.6
			c-1,0.1-2,0.3-3,0.4c-1.3,0.1-2.5,0.2-3.8,0.2c-2.8,0.1-5.7,0-8.5-0.1c-2.3,0-4.6-0.1-6.9-0.2c-0.6,0-9.3-0.3-8.3-2.9
			c3.7,1.7,10.4,1,13.6,1.2c5.4,0.2,12.5,1.2,17.8-0.5C95.1,103.4,94.8,104,94.5,104.6z M82,114.4c-0.9,0.3-2.3,0.4-3.3,0.4
			c-0.4,0-1,0.1-1.4-0.1c-0.4-0.2-0.1,0.1-0.3-0.4c-0.2-0.4-0.3-1.1-0.4-1.7c2.9-0.1,5.4-0.3,6.4-0.4C83,113.2,82.7,114.1,82,114.4z
			 M94.5,107.1c-0.8,1.8-2.1,2.5-3.9,2.2c-1.3,0.1-2.6,0.2-3.9,0.2c-2.2,0.1-4.4,0.3-6.7,0.4c-1.8,0.1-17,0.6-14.5-2.9
			c0-0.1,0.1-0.1,0.1-0.2c4.7,1.1,11.4,0.8,13.5,0.8C81.2,107.7,89.1,108.3,94.5,107.1C94.4,107.1,94.4,107.1,94.5,107.1z
			 M109.8,62.2c-1,4.6-1.9,7.4-4.8,11.3c-2.4,3.1-4.8,6.3-6.9,9.6c-1.1,1.6-2,3.3-2.5,5.2c-0.6,2.7,0.4,5.1-3.2,6.5
			c-1.7,0.7-4,0.8-6.4,0.7c-0.6-9.7-1.1-21,1.6-30.6c4.9,0.4,12-1.7,10.8-7.5c-1.8-8.3-9.5-2.4-11.6,2.2c-0.3,0.7-0.6,1.4-0.9,2.2
			c-1-0.3-2-0.7-2.7-1.1c-0.6-0.3-1.3-0.8-2-1.3c3.6-3.3,5.1-7.6,1.4-11.9c-3-3.5-7.4-1.1-8.4,3.2c-0.7,3.1,0.8,6.2,3.1,8.6
			c-1.5,1-3.2,1.7-4.8,2.2c-1.9-6.5-5.1-10.6-10.5-7.9c-3.1,1.6-2.7,5.9-0.7,8.3c2.3,2.7,5.9,3.2,9.4,2.6c1,4.5,0.9,9.3,1.2,13.9
			c0.3,5.6,0.6,11.2,0.9,16.7c-1.6-0.1-3.2-0.3-4.7-0.7c-2.4-0.5-2.9-0.5-3.8-3c-0.6-1.7-0.6-3.5-1.4-5.2c-2.1-4-6.3-6.9-8.8-10.7
			c-2.7-4.2-5.4-9.3-6.5-14.2c-1.7-7.8,0.8-16,5.1-22.5c6.2-9.4,15.6-14.1,26.7-14.9c10.1-0.8,20.4,4.5,26,13
			C110.3,44.5,111.6,53.5,109.8,62.2z M88.4,62.4c0.1-0.1,0.1-0.3,0.1-0.4c0.6-1.9,1.6-3.5,3-5c4.5-1.5,5.3-0.1,2.5,4.2
			C92.7,62.5,90.5,62.7,88.4,62.4z M70,62c-0.7,0.1-1.5,0.1-2.1,0c-1.7-0.1-7.5-2-5.6-5.2c2.5-4.4,6.8,2.3,7.4,4.3
			C69.8,61.4,69.9,61.7,70,62z"/>
		<path d="M126.3,28.1c-3.7,1.7-7.4,3.2-10.7,5.5c-1.8,1.3-0.1,4.2,1.7,2.9c3.3-2.4,7-3.9,10.7-5.5C130,30.2,128.3,27.2,126.3,28.1z
			"/>
		<path d="M101.7,20.2c2.5-3.2,4.4-6.7,6.4-10.3c1.1-1.9-1.9-3.6-2.9-1.7c-1.8,3.3-3.6,6.6-5.9,9.6C98,19.5,100.4,21.9,101.7,20.2z"
			/>
		<path d="M80.2,13.1c0.3-3.8,0.4-7.6,0.4-11.5c0-2.2-3.4-2.2-3.4,0c0,3.8-0.1,7.6-0.4,11.5C76.7,15.3,80.1,15.3,80.2,13.1z"/>
		<path d="M56.4,20.2c1.2,1.8,4.1,0.1,2.9-1.7C57,15,54.4,11.7,52.9,7.8c-0.8-2-4-1.1-3.3,0.9C51.3,12.9,53.9,16.5,56.4,20.2z"/>
		<path d="M42.4,33.4c-3.3-2.5-7-4.4-10.8-6c-2-0.8-2.9,2.5-0.9,3.3c3.6,1.4,6.9,3.3,10,5.6C42.4,37.6,44.1,34.6,42.4,33.4z"/>
		<path d="M68,30.8C60.1,33.1,53,41.6,51.9,49.7c-0.2,1.6,2.2,2.3,2.5,0.7c1-7.3,7.2-15.1,14.4-17.2C70.3,32.8,69.6,30.3,68,30.8z"
			/>
		<path d="M69.6,35.2c-2.4,0.3-4.7,2-6.2,3.9c-1,1.3,0.8,3.1,1.8,1.8c1.2-1.6,3-3,5.1-3.3C71.9,37.4,71.2,34.9,69.6,35.2z"/>
	</g>
</g>
</svg>
