<?xml version="1.0" encoding="utf-8"?>
<!-- Generator: Adobe Illustrator 25.2.1, SVG Export Plug-In . SVG Version: 6.00 Build 0)  -->
<!DOCTYPE svg PUBLIC "-//W3C//DTD SVG 1.1//EN" "http://www.w3.org/Graphics/SVG/1.1/DTD/svg11.dtd" [
	<!ENTITY st0 "fill:#3269F9;">
	<!ENTITY st1 "fill:#FFFFFF;">
	<!ENTITY st2 "fill-rule:evenodd;clip-rule:evenodd;fill:#FFFFFF;">
	<!ENTITY st3 "fill-rule:evenodd;clip-rule:evenodd;">
]>
<svg version="1.1" id="Layer_1" xmlns="http://www.w3.org/2000/svg" xmlns:xlink="http://www.w3.org/1999/xlink" x="0px" y="0px"
	 viewBox="0 0 149.1 130" style="enable-background:new 0 0 149.1 130;" xml:space="preserve">
<g>
	<g>
		<path style="&st0;" d="M4.5,56.5C2,47-2.5,32.7,6.9,25.2c8.2-6.5,20.5-2,29.4,0.6c25.7,7.5,46.3,5.6,58.7-2.7
			c18.5-12.4,32.7-8.5,37.8,0.3c12.3,21-13,42.9-1.5,56.3c15.1,17.6,22.1,30,6.7,44.5c-14.2,13.3-57.5-5.9-79.2-10.7
			C48.3,111.1,38,111,27,110.5C15.9,110,6.3,104.9,4.5,93C2.7,80.7,7.5,68.6,4.5,56.5z"/>
		<path style="&st1;" d="M77.8,120.2c-7.1-2.2-13.9-4.3-19.2-5.5c-9.1-2-17.9-2.4-27.2-2.7c-1.5-0.1-3-0.1-4.5-0.2
			C13.6,111.2,5,104.4,3.3,93.2C2.5,87.4,3,81.6,3.6,76.1c0.7-6.6,1.3-12.9-0.3-19.3c-0.2-0.7-0.3-1.3-0.5-2c-2.5-9.7-6-23,3.4-30.5
			c8-6.4,19.2-3,28.3-0.3c0.8,0.2,1.5,0.5,2.2,0.7c23.8,7,44.9,6.1,57.7-2.6c9.9-6.7,19.9-9.3,27.9-7.5c5.1,1.2,9.2,4.1,11.7,8.2
			c6.7,11.5,2.7,23.1-0.8,33.4c-3.1,9.1-5.8,16.9-0.8,22.7c14.1,16.4,23.6,30.2,6.6,46.2c-3.8,3.6-9.4,4.9-16.1,4.9
			C109.6,130,92.5,124.7,77.8,120.2z M95.8,24.1C82.3,33.1,60.6,34.2,36,27c-0.7-0.2-1.5-0.4-2.3-0.7c-8.5-2.6-19.1-5.7-26-0.1
			c-8.1,6.5-4.9,18.9-2.6,28c0.2,0.7,0.4,1.4,0.5,2l0,0C7.3,63,6.7,69.8,6,76.3c-0.5,5.4-1.1,11-0.3,16.5c1.5,9.9,9.2,16,21.3,16.5
			c1.5,0.1,3,0.1,4.5,0.2c9.4,0.4,18.3,0.7,27.6,2.8c5.4,1.2,12.2,3.3,19.4,5.5c21.6,6.7,48.5,15,58.7,5.5
			c14.2-13.3,9.1-24.4-6.7-42.8c-5.9-6.9-2.9-15.7,0.3-25.1c3.5-10.3,7.2-20.9,1-31.4c-2.1-3.5-5.7-6-10.1-7.1
			c-1.5-0.3-3.1-0.5-4.7-0.5C110.6,16.4,103.2,19.1,95.8,24.1z"/>
	</g>
	<g>
		<path d="M87.1,111c-7-0.8-13.6-1.5-18.7-1.6c-8.8-0.3-16.9,0.9-25.6,2.1c-1.4,0.2-2.8,0.4-4.2,0.6c-12.1,1.7-21-2.7-24.4-12
			c-1.8-4.9-2.3-10-2.7-14.9c-0.5-5.7-1.1-11.7-3.7-17c-0.3-0.5-0.5-1.1-0.8-1.7c-3.9-8-9.3-18.9-2.3-26.8
			c6.1-6.7,16.8-5.6,25.5-4.8c0.7,0.1,1.5,0.1,2.2,0.2c23.4,2.2,42.7-2.2,53.2-12c7.9-7.4,16.4-11.3,24-11.1c4.7,0.2,8.9,2,11.8,5.1
			c8,8.8,6.4,19.5,4.9,29c-1.3,8.6-2.5,16.1,3.4,20.6c15.6,11.8,26.6,22.2,14,38.7c-4.6,6-14.9,7.8-26.8,7.8
			C107.2,113.2,96.6,112,87.1,111z M86.3,23.8C75.7,33.9,56,38.4,32.3,36.1c-0.7-0.1-1.4-0.1-2.2-0.2c-8.4-0.8-18.8-1.9-24.5,4.4
			C-1.1,47.7,4.2,58.2,8,65.9c0.3,0.6,0.6,1.1,0.8,1.7l0,0c2.7,5.6,3.3,11.6,3.8,17.4c0.5,4.9,0.9,9.9,2.7,14.7
			c3.2,8.8,11.6,12.9,23.1,11.3c1.4-0.2,2.8-0.4,4.2-0.6c8.7-1.2,17-2.4,25.8-2.1c5.2,0.2,11.8,0.9,18.8,1.6
			c21.2,2.3,47.6,5.2,55.5-5.2c11-14.4,4.3-23.5-13.8-37.2c-6.4-4.9-5.2-13-3.9-21.6c1.4-9.3,3-19.8-4.6-28.1
			c-2.6-2.9-6.5-4.5-10.9-4.7c-0.2,0-0.5,0-0.7,0C101.7,13.1,93.7,16.9,86.3,23.8z"/>
	</g>
</g>
<g>
	<g id="body_x2F_mono_x2F_Macbook">
		<path id="_xD83C__xDFA8_-Background" style="&st2;" d="M14.7,51.7c-0.7,0.4-0.7,1.2-0.3,1.6l0,0c0.2,0.2,0.5,0.4,0.8,0.4
			c0.5,9.1,2.5,18.4,3.8,27.5c-0.4,0.5-0.3,1.2,0,1.7c0,0.6,0.4,1.1,0.9,1.2c0,0,0,0,0,0c1,1.1,4.2,4,5,1.7
			c5.5,1.2,11.3,1.6,16.9,2.3c0.6,3.5-0.6,7.2,0.8,10.4c1.6,2.9,3.8,4.5,3.7,4.5l5.2,1.3c-1.2,0.2-2.1,4.2-0.9,4.5
			c1.9,0.4,5-0.6,7-0.5c18.7-1.6,32,3.1,47.3,3.1c0-0.7,0.7-5.5,0-6.9c4.2,1.7,10.3,0.7,11.8-3.5c0.7,0.1,2.1-9.8,2-14.2
			c0.3-0.2,0.7-0.4,1.2-0.4c1.2-0.2,1.1-2,0.1-2.3c-0.2-5.3-1.7-10.6-3.6-15.5c-0.5-1.7-0.5-3.6-1-5.4C112,44.9,103.6,45.4,89,38.2
			c1.7-1.5-2.2-6.1-2.5-5.6c-0.2,0-2.7-0.1-2.9-0.1c-2-4.3-7.8-4.4-11.9-3.7c-4.6,0.7-6.8,4.4-6.8,8.8c-0.2-0.2-3.3,0.6-2.6,1.9
			c-0.4,0.3-0.6,0.7-0.6,1.2c-2.5-0.2-7.6,2.6-9.8,4c-1.3,1-2,2.4-2.6,3.9c-0.9,2.4-1.8,4.8-3.1,7c0,0,0,0-0.1,0
			c-0.6-0.6-1.5-0.1-2.2,0c-0.2-0.2-0.6-0.3-0.8,0c-7.4-1-14.7-2.5-22.2-3.3c-1.5-0.2-3.1-0.4-4.6-0.6
			C15.7,51.6,15.3,51.4,14.7,51.7z"/>
		<path id="_xD83D__xDD8D_-Ink" style="&st3;" d="M83.5,32.2c1.1-0.1,2.2-0.1,3.2,0.3c0.1-0.1,0.3,0.1,0.3,0.1
			c0.3,0.2,0.6,0.4,0.9,0.6c0.6,0.6,1,1.3,1.4,2l0.2,0.3c0.2,0.4,0.5,0.8,0.7,1.2l0,0c0.2,0.3,0.3,0.7,0,1c-0.1,0.1-0.3,0.2-0.5,0
			c0,0,0,0,0,0l0,0c0,0.1-0.1,0.2-0.1,0.3c1.4,0.7,2.8,1.4,4.3,2.1c1.6,0.7,3.3,1.4,5,2.1l0.1,0.1c3.2,1.3,6.5,2.7,9.2,4.8
			c1.5,1.2,2.7,2.5,3.8,4c1.1,1.7,2,3.5,2.6,5.4c1.4,3.8,2.4,7.7,3.4,11.6l0.3,1.1c0.6,2.5,1.2,5,1.7,7.5c0.5,2.6,1.1,5.1,1.2,7.7
			c0.4,0.5,0.5,1.1,0.1,1.7c-0.5,0.7-1.2,0.8-2,0.8l-0.1,0c-0.2,0-0.2-0.3,0-0.3c0.5-0.1,2-0.8,1.4-1.4c-0.3,0-0.6-0.1-0.7-0.3
			c-0.3,0-0.7,0-1,0.1c0.2,2.3,0.2,4.7,0.1,7c-0.1,2.2-0.2,4.4-0.8,6.5c-0.5,1.9-1.5,3.6-2.7,5c-1.2,1.4-2.7,2.5-4.5,2.7
			c-1.9,0.2-3.8-0.1-5.7-0.7c0,0.2,0.1,0.4,0.1,0.6c0.1,0.6,0.7,5.8,0.4,6.4c-0.2,0.3-1.6-0.2-1.8-0.4c-0.4-0.4,0.4-5,0.5-5.6l0-0.1
			c0.1-0.4,0.1-0.8,0.1-1.2c-1.6-0.6-3.1-1.4-4.6-2.2l-0.3-0.2c-4.2-2.3-8.3-4.7-12.4-7.1L85,94.6c-2.1-1.2-4.1-2.4-6.2-3.6
			c-0.4,0-0.7,0-1.1-0.2c-0.4-0.2-0.7-0.4-0.9-0.8c0-0.1,0-0.1-0.1-0.2l-2.7-1.6c-1.1,0.5-2.3,0.8-3.4,1.2c-1.2,0.4-2.3,0.9-3.5,1.4
			c-2.3,0.9-4.7,1.6-7.3,1.5c-0.3,0-0.5-0.2-0.6-0.3c-0.1,0.1-0.3,0.2-0.5,0.2c-1.8-0.1-3.6-0.3-5.4-0.6l-1.2-0.2c0,0.1,0,0.2,0,0.3
			c0,0.3,0.1,0.6,0.1,0.9c0.1,0.7,0.1,1.5,0.1,2.2c0,1.4,0,2.9-0.1,4.3c-0.1,1.4-0.3,2.8-0.5,4.1c-0.1,0.7-0.3,1.4-0.4,2.1
			c-0.1,0.7-0.1,3.9,0.2,4.5c-1.6,0.3-1.9,0.5-2,0.2c-0.2-0.7,0.4-4.4,0.6-5.1c-1,0.1-2.4-0.4-3.2-0.7l-0.1,0
			c-0.8-0.4-1.6-0.9-2.3-1.5c-0.7-0.6-1.4-1.2-1.9-1.8c-0.6-0.7-1-1.6-1.1-2.5c-0.1-0.8-0.1-1.5-0.1-2.3l0-1c0-1.8,0.1-3.5,0.3-5.2
			l-13-2c-2.4-0.4-4.9-0.6-7.4-1.2c-1-0.2-1.9-0.6-2.6-1.3c-0.6-0.7-1-1.6-1.2-2.4c-0.2-1-0.3-2-0.4-3c-0.2-1.3-0.4-2.5-0.5-3.7
			c-0.3-2.5-0.6-4.9-1-7.4c-0.7-5.7-1.3-11.3-2.1-17c0-0.3,0.2-0.7,0.6-0.7c9.9,0.7,19.7,2,29.4,4c0.4,0.1,0.9,0.2,1.3,0.3
			c0.2-0.5,0.6-1,0.8-1.4c0.3-0.5,0.5-1.1,0.7-1.7l0.2-0.4c0.6-1.4,1.1-2.9,1.9-4.2c0.8-1.3,1.8-2.4,3.1-3.3
			c1.1-0.8,2.5-1.3,3.8-1.8l0.3-0.1c1.7-0.6,3.4-1,5-1.8c0.1,0,0.2,0.1,0.1,0.2c-2.4,1.8-5.3,2.6-7.8,4.2c-1.2,0.8-2.2,1.8-3,3.1
			c-0.7,1.2-1.3,2.4-1.8,3.7l-0.2,0.5c-0.3,0.7-0.6,1.4-0.9,2.1l0,0.1c-0.2,0.3-0.3,0.8-0.6,1.1c0.2,0.1,0.5,0.1,0.7,0.2
			c1.1,0.3,2.3,0.5,3.4,0.8c1,0.3,1.8,0.9,2.2,1.8c0.5,1,0.7,2.1,1,3.1l0.1,0.5c1.3,4.5,2.4,9.1,3.3,13.7c0.5,2.7,1,5.4,1.5,8.1
			c0,0.3,0.1,0.5,0.1,0.8c0.4,0.1,0.7,0,1.1-0.1l0.2-0.1c0.4-0.1,0.8-0.1,1.2,0.2c0.4-0.5,1-1,1.6-1.2c0.8-0.4,1.6-0.6,2.5-0.8
			l0.4-0.1c0.8-0.2,1.8-0.3,2.6-0.1c0.3,0.1,0.2,0.5,0,0.6c-0.5,0.2-1.1,0.1-1.6,0.2c-0.5,0-0.9,0.1-1.4,0.2
			c-0.8,0.2-1.7,0.4-2.4,0.8c-0.6,0.3-1.6,1.2-1.3,2c0.3,0.9,1.6,0.3,2.3,0l0.3-0.1c1.4-0.7,3.1-1.5,4.7-0.7c0.8,0.4,1.5,1,2.3,1.3
			c0.5,0.2,1.1,0.4,1.6,0.5c0.1-0.2,0.4-0.4,0.7-0.3c1.6,0.9,3.2,1.8,4.8,2.7c0.3,0,0.5-0.1,0.7-0.2c0.9-0.6,1.3-1.7,1.6-2.7
			l0.1-0.2c0.4-1.2,0.8-2.6,0.6-3.8c0-0.3-0.1-0.6-0.3-0.9c-0.9-0.3-1.8-0.6-2.7-0.8c-1.4-0.4-3-0.8-4.3-1.4
			c-0.3-0.1-0.3-0.4-0.1-0.6c-1.8-0.6-3.5-1.2-5.3-1.8c-0.6-0.2-1.3-0.4-1.9-0.7l-1.3-0.4c-0.9-0.3-2.5-1.1-3.1,0
			c-0.1,0.2-0.4,0.2-0.5,0.1c-0.3,0.4-0.7,0.7-1,1c-0.5,0.4-1,1.2-1.7,1.2c-0.2,0-0.3-0.2-0.3-0.4c0.1-0.3,0.3-0.5,0.5-0.7l0.1,0
			c0.3-0.3,0.6-0.5,0.9-0.7c0.4-0.3,0.9-0.7,1.3-1c0.4-0.9,1.5-1.1,2.4-0.9c1.2,0.3,2.4,0.8,3.6,1.2l0.3,0.1
			c2.3,0.9,4.6,1.8,6.8,2.9c1.2,0.3,2.4,0.7,3.5,1.1l1.6,0.5c-0.2-0.1-0.3-0.2-0.5-0.3c-0.1,0-0.1-0.2,0-0.2
			c0.9-0.5,1.8-0.2,2.5,0.6c0.2,0.2,0.4,0.5,0.5,0.7c2.6,0.8,5.2,1.6,7.8,2.4c3.6,1.1,7.1,2.2,10.7,3.4c-0.1-0.4-0.2-0.9-0.2-1.2
			l0-0.2c-0.1-0.7-0.2-1.4-0.2-2l0-0.3c-0.1-1.4-0.3-2.9-0.3-4.3c0-1.5-0.1-2.9,0-4.4c0-0.7,0.1-1.5,0.1-2.3c0.1-0.7,0.1-1.4,0.5-2
			c0-0.1,0.1,0,0.1,0c0.3,0.5,0.5,1.1,0.6,1.7l0,0.2c0,0,0,0.1,0,0.1c0.5-0.8,1-1.5,1.7-2.1c0.1-0.1,0.2,0,0.2,0.1
			c-0.4,0.9-0.9,1.8-1.3,2.8c-0.1,0.4-0.3,0.7-0.4,1.1l0,0.2c0.1,1.5,0.2,3,0.4,4.4l0,0.3c0.1,1.4,0.2,2.7,0.2,4.1
			c0,0.7,0.1,1.4,0.1,2.1l0,0c0,0.5,0.1,1.4-0.2,1.9c0.3,0.1,0.6,0.2,0.9,0.3c-0.1-0.4,0.1-0.9,0.6-1.1c4.1-1.4,8.3-2.1,12.6-2.5
			c0.9-0.1,2.2-0.5,3.3-0.4c-0.5-1.9-0.8-3.9-1.2-5.8c-0.4-2.2-0.9-4.4-1.4-6.6c-1-4.3-2.1-8.6-3.4-12.7c-1.2-3.6-2.8-7.2-5.7-9.8
			c-2.4-2.2-5.5-3.6-8.5-4.9l-0.5-0.2c-1.7-0.8-3.5-1.5-5.2-2.3c-1.5-0.8-3.2-1.6-4.5-2.9c-0.6,0.8-1.3,1.6-1.9,2.4
			c-1,1.3-2,2.8-2.8,4.2c-0.8,1.4-1.4,2.9-2.2,4.4c-0.4,0.7-1.9,3.5-2.9,2.1c-0.1-0.1-0.1-0.3,0-0.4c-0.2-0.3-0.4-0.5-0.6-0.8
			c-0.2-0.3-0.4-0.7-0.7-1c-0.5-0.8-1-1.5-1.5-2.2c-0.5-0.7-1-1.4-1.6-2.1c-0.3-0.4-0.6-0.8-0.8-1.2c-0.2,0.6-0.2,1.3,0,2
			c0.2,1,0.6,2.1,0.4,3.1c-0.2,1-0.9,1.6-1.6,2.2l-0.3,0.2c-1,0.7-1.8,1.6-2.4,2.7c-0.3,0.5-0.6,1.1-0.7,1.7
			c-0.2,0.6-0.2,1.2-0.4,1.8c-0.1,0.3-0.5,0.3-0.6,0.1c-0.4-0.9-0.1-2.1,0.2-3l0-0.1c0.4-1,1.1-2,1.8-2.8c0.4-0.4,0.7-0.7,1.1-1
			c0.5-0.4,1-0.7,1.4-1.1c0.7-0.9,0.3-2.1,0-3.1l0-0.1c-0.2-1-0.4-2,0-3c0.4-0.9,1.1-1.6,1.9-2.2c0.9-0.6,1.8-1.1,2.7-1.6
			c1-0.6,2-1.2,3-2c0.9-0.7,1.7-1.3,2.6-2.1c-0.4-0.4-0.8-0.9-1-1.5c-0.3-0.7-0.7-1.4-0.8-2.2c-0.1-1.2,1.5-1.6,1.9-0.4 M43.3,94.1
			c0.1,0.9,0.2,1.8,0.3,2.6c0.1,0.7,0.1,1.5,0.4,2.2c0.2,0.5,0.6,0.9,1,1.3l0.4,0.4c0.5,0.5,0.9,0.9,1.5,1.3
			c0.5,0.4,1.1,0.8,1.8,1.1c0.4,0.2,1.4,0.5,1.7,0.2c0.1-0.1,0.3-0.2,0.4-0.2l0-0.1l0-0.3c0.2-1.4,0.4-2.8,0.6-4.2
			c0.2-1.5,0.2-2.9,0.3-4.4c0-0.7,0-1.5,0-2.2c0-0.1,0-0.3,0-0.5l-3.3-0.5c-1.5-0.2-3-0.4-4.5-0.7L42.4,90 M82.7,83.7
			c-0.1,1.2-0.3,2.4-0.6,3.6c-0.3,1.1-0.8,2.2-1.6,3c-0.1,0.1-0.3,0.3-0.5,0.4c5.8,3.3,11.6,6.6,17.4,9.8c3.5,2,7.2,4.4,11.3,4.9
			c0.9,0.1,1.7,0.1,2.6-0.1c0.9-0.2,1.7-0.7,2.4-1.3c1.4-1.2,2.5-2.8,3.2-4.5c0.9-2.1,1.2-4.4,1.4-6.6l0-0.4c0.2-2,0.3-4,0.3-6.1
			l0-1.4l-0.5,0.1c-0.6,0.1-1.2,0.3-1.7,0.4c-0.8,0.1-1.7,0.2-2.5,0.4c-3.3,0.6-6.4,1.4-9.6,2.4c0.4,0.1,0.8,0.3,1.3,0.4
			c2.3,0.7,4.6,1.6,6.2,3.4c0.1,0.1,0,0.1-0.1,0.1c-1.5-1.5-3.5-2.2-5.5-2.8l-0.4-0.1c-2.5-0.7-5.1-1.4-7.6-2.2
			c-5.1-1.5-10.2-3.1-15.4-4.7l-0.1,0 M75.6,92.6l0.2,0.2c0.3,0.4,0.5,0.8,0.7,1.2c0.6,0.9,1.2,1.9,1.7,2.8c1.2,1.9,2.3,3.8,3.2,5.8
			c0.2,0.4-0.4,0.9-0.7,0.5c-1.4-1.7-2.6-3.6-3.6-5.6c-0.5-1-1-2-1.5-3c-0.2-0.5-0.5-1-0.7-1.5l0,0c-0.2-0.4-0.4-0.9-0.4-1.3
			c0-0.1,0.1-0.1,0.1-0.1 M16.8,66.1c0.7,4.9,1.2,9.7,1.9,14.6l0,0c0.2,1.6,0.6,3.6,2.4,4.2c1,0.3,2.2,0.4,3.3,0.6l18.3,2.8
			c2.8,0.4,5.5,0.8,8.3,1.3l0.3,0c2.7,0.4,5.3,0.8,8,1.4c0.1,0,0.2,0.1,0.2,0.1c-0.5-2-0.9-4.1-1.3-6.1c-0.4-2.3-0.8-4.6-1.3-6.9
			c-0.9-4.6-2-9.2-3.2-13.8c-0.3-1.2-0.6-2.3-0.9-3.4c-0.3-1-0.5-2.2-1.4-2.7c-0.9-0.6-2.1-0.7-3.1-0.9L47.6,57c-1-0.2-2-0.4-3-0.6
			c-4.7-1-9.5-1.8-14.3-2.5c-5.1-0.7-10.3-1.3-15.5-1.6 M59.6,91c0.1-0.1,0.3-0.1,0.4-0.1c2.4,0.1,4.7-0.6,6.9-1.4l0.9-0.3
			c0.9-0.3,1.8-0.6,2.8-0.9c0.9-0.2,1.9-0.5,2.8-0.5l-0.2-0.1c0,0-0.1,0-0.1-0.1c-0.4,0-0.8,0-1.2-0.1c-0.8-0.2-1.5-0.5-2.2-0.9
			c-0.8-0.5-1.5-0.9-2.5-0.8c-0.9,0.2-1.7,0.6-2.5,1c-1,0.5-3.1,1.2-3.5-0.4c-0.1-0.6,0-1.1,0.3-1.6c-0.5-0.1-1.5,0.5-2.3,0.6
			 M67.6,81.6l1.1,0.3c0,0,0,0.1,0,0.1c-1-0.1-2-0.3-3-0.4c-0.9-0.1-1.8-0.4-2.6-0.4c-0.8-0.1-1.3,0.3-1.8,0.8l-0.3,0.3
			c-0.5,0.5-1.1,0.9-1.8,0.6c-0.3-0.1-0.2-0.5,0.1-0.5c1,0,1.5-0.9,2.2-1.4c0.6-0.4,1.2-0.5,1.9-0.4 M67.2,78.3
			c1.1,0.3,2.2,0.5,3.2,1.1c0.1,0.1,0,0.2-0.1,0.2l0,0c-1-0.1-1.9-0.4-2.9-0.6c-1-0.2-2-0.4-3.1-0.5c-1.1-0.1-2-0.3-3,0.3
			c-0.9,0.5-1.6,1.2-2.6,1.4c-0.1,0-0.3-0.1-0.2-0.3c0.5-0.8,1.5-1.3,2.3-1.8l0.2-0.1c0.9-0.5,1.9-0.5,2.9-0.3l0.1,0 M35,66.3
			c0-0.5,0.6-0.6,0.8-0.2l0,0.1c0.5,0.9,1.1,2,1,3c0.5,0.1,1,0.5,1.1,1c0.1,0.2,0.1,0.5,0,0.7c0.5,0.1,0.9,0.5,1.2,0.8
			c0.4,0.6,0.3,1.3-0.1,1.8c-0.9,1.1-2.6,1.4-3.9,1.3l0,0c-1.4-0.1-3.4-0.4-4.2-1.8c-0.7-1.3,0.4-2.1,1.5-2.4
			c-0.2-0.3-0.3-0.7-0.1-1c0.3-0.6,1.2-0.8,1.7-1.1C34.6,67.9,35.1,67.2,35,66.3 M35.7,67.4c-0.3,0.6-0.7,1.2-1.3,1.6
			c-0.2,0.2-0.5,0.3-0.7,0.4l0,0c-0.2,0.1-0.8,0.2-0.8,0.5c0,0.3,0.8,0.8,1,0.8c0.1,0,0.1,0.1,0,0.1C33.4,71,33,71,32.7,70.8
			c-0.3,0.2-0.6,0.5-0.9,0.7c-0.5,0.4-0.4,1,0,1.4c0.8,0.7,2.1,0.9,3.1,1c1,0.1,2.1,0,3-0.5l0,0c0.5-0.3,1-0.9,0.4-1.4
			c-0.2-0.2-0.5-0.2-0.8-0.3c-0.3,0.4-0.7,0.7-1.2,0.7c-0.4,0-0.6-0.5-0.2-0.7l0.1,0c0.5-0.2,0.9-0.6,0.9-1.1c0-0.4-0.4-0.9-0.8-0.6
			l0,0c-0.3,0.3-0.8-0.2-0.5-0.5l0,0 M99.3,55.3c-0.3,1.4-0.6,2.7-0.9,4.1c-0.5,2.7-1.1,5.5-1.6,8.2c-0.1,0.4-0.7,0.3-0.7-0.1
			c0.1-2.8,0.5-5.6,1.2-8.3c0.3-1.4,0.7-2.7,1.1-4c0.4-1.3,0.8-2.7,1.5-3.8c0-0.1,0.2,0,0.2,0 M92.7,63.2c0.1,0.5-0.7,0.7-0.8,0.2
			c-0.7-3.5-0.1-7.2,1.3-10.4c0.1-0.1,0.3-0.1,0.2,0.1 M75.1,52c-0.3,0.3-0.7,0.5-1.2,0.6c-0.3,0.1-0.8,0.1-1.1,0.3
			c-0.2,0.1-0.3,0.4-0.5,0.6c-0.1,0.1-0.3,0.1-0.4-0.1c-0.2-0.4,0-0.8,0.4-1c0.5-0.4,1.1-0.3,1.7-0.5c1.1-0.4,1.4-1.6,2.1-2.5
			c0.1-0.1,0.2-0.1,0.2,0.1 M66.7,35.5l0,0.2c0,0.7-0.1,1.4-0.2,2.1c-0.1,0.7-0.3,1.4-0.5,2.1l0,0c-0.1,0.4-0.3,1.1-0.7,1.4
			c0.3,0.7,0.6,1.3,0.9,2c0.5,1.1,1,2.1,1.9,3c0.8,0.8,1.6,1.4,2.1,2.4c0.4,0.7,1.1,2.1,0.3,2.8c-0.1,0.1-0.2,0.1-0.4,0
			c-0.3-0.2-0.4-0.6-0.5-0.9l-0.1-0.2c-0.1-0.5-0.3-1-0.6-1.4c-0.6-1-1.5-1.6-2.2-2.5c-0.6-0.8-1-1.8-1.4-2.7l-0.1-0.2
			c-0.3-0.7-0.5-1.3-0.7-2c-0.1,0-0.2-0.1-0.3-0.2c-0.2-0.3-0.1-0.7,0-1.1l0-0.1c0-0.1,0-0.1,0-0.2c0-0.1,0.1-0.1,0.1,0l0,0l0-0.1
			c0,0,0-0.1,0-0.1c0.2-0.6,0.4-1.2,0.6-1.8c0.2-0.6,0.3-1.2,0.5-1.8c0.1-0.3,0.2-0.6,0.2-0.9c0-0.1,0.2-0.6,0.3-0.8
			c-0.1-0.1-0.1-0.1,0-0.2c0-0.1,0.1-0.1,0.2,0 M64,38.3l-0.3,0.2c-0.4,0.3-0.9,0.6-1.2,1c-0.3,0.4-0.2,1-0.1,1.5l0,0.1
			c0,0.4,0.1,0.9,0.1,1.4c0.1,0,0.2,0.1,0.2,0.1c0.4,0.6,0.6,1.3,1.1,1.8c0.4,0.5,0.9,0.9,1.2,1.5c0.4,0.8,0.5,1.8,0.5,2.7
			c0.2-0.1,0.3-0.2,0.5-0.4l0,0c0.4-0.3,0.9-0.7,1.4-0.6c0.4,0.1,0.7,0.7,0.9,1l0.1,0.1c0.3,0.5,0.6,1,0.8,1.6
			c0,0.1-0.1,0.1-0.1,0.1c-0.3-0.4-0.5-0.7-0.9-1.1l0,0c-0.2-0.2-0.7-0.8-0.9-0.7c-0.1,0-0.4,0.3-0.5,0.4l-0.2,0.1
			c-0.1,0.1-0.2,0.2-0.3,0.3c-0.1,0.1-0.3,0.2-0.4,0.3l-0.8,0.6c-0.3,0.3-1,0.1-0.9-0.4c0.1-1.2,0.4-2.6-0.5-3.7
			c-0.6-0.8-1.5-1.6-1.8-2.7c-0.3,0.1-0.6,0-0.7-0.4c-0.1-0.7-0.1-1.4-0.1-2.1l0-0.1c0-0.6,0-1.2,0.3-1.7c0.3-0.5,0.8-0.8,1.2-1
			l0.1,0c0.6-0.3,1.3-0.7,1.9-0.8c0.1,0,0.2,0.1,0.2,0.2 M85.3,34.9L85,35.3c-0.7,0.9-1.6,1.7-2.5,2.4c-1.7,1.4-3.5,2.5-5.4,3.6
			l-0.5,0.3c-0.8,0.4-1.6,0.9-2.1,1.6c-0.1,0.1-0.2,0.2-0.2,0.3c0.6,0.3,1,1,1.4,1.4l0.2,0.2c0.5,0.6,1.1,1.3,1.6,2
			c0.6,0.7,1.1,1.5,1.6,2.2l0,0c0.2,0.3,0.7,0.9,0.9,1.4c0,0,0,0,0.1-0.1c0.5-0.6,1-1.3,1.3-2c0.8-1.4,1.4-2.8,2.2-4.2
			c0.8-1.4,1.8-2.7,2.9-3.9c0.7-0.8,2.7-2.8,2.7-2.8c0.1-0.1,0.2-0.2,0.2-0.3c-0.1-0.1-0.2-0.2-0.2-0.3c-0.1-0.2-0.2-0.3-0.3-0.5
			c-0.2-0.4-0.4-0.7-0.6-1.1c-0.3-0.7-0.7-1.4-1.2-2c-0.2-0.2-0.3-0.3-0.5-0.5 M83.7,33.6c0.1,0.5,0.2,0.9,0.2,1.4
			c0.7-0.7,1.4-1.4,2.2-2c-0.8-0.3-1.7-0.3-2.6-0.4"/>
	</g>
	<g id="head_x2F_mono_x2F_No-Hair-1">
		<path id="_xD83C__xDFA8_-Background_1_" style="&st2;" d="M58.1,29.9c0.4,1.5,0.7,3,1.3,4.4c2.6,6.5,10.8,5.7,16.6,3.4
			c2-0.8,6.9-5.9,7.3-6.6c1.6-2.7,1.8-5.3,2.2-8.5c0-0.7,0.5-1.4,1-1.8c0.9-0.9,1.4-2,1.2-3.3c-0.3-1.5-1-2-2.2-2.7
			c-0.6-0.4-0.6-1.3-0.8-2c-0.5-1.4-1.1-2.8-1.9-4.1C78.3-3.1,62-1.7,57.1,9.3c-1.7,3.4-2.2,7-1.7,10.5
			C55.8,23.3,57.3,26.6,58.1,29.9z"/>
		<path id="_xD83D__xDD8D_-Ink_1_" style="&st3;" d="M56.2,21.8l0.2,0.6c0.4,1.2,0.8,2.4,1.1,3.6c0.4,1.3,0.7,2.7,1.1,4l0,0.1
			c0.3,1.2,0.7,2.3,1.1,3.5c0.9,2,2.4,3.5,4.4,4.3c1.9,0.7,3.9,0.7,5.9,0.5l0.1,0c2.2-0.2,4.6-0.7,5.9-2.8c0.5-0.9,2,0,1.5,0.9
			c-1.1,2.2-3.7,3.1-6.1,3.5c-2.2,0.3-4.5,0.3-6.6-0.2c-2.3-0.6-4.3-1.8-5.5-3.8c-1.5-2.4-1.9-5.2-2.6-7.9l-0.1-0.4
			c-0.4-1.5-0.7-3-1-4.5c-0.2-0.8-0.3-1.6-0.4-2.4c-0.1-0.8-0.3-1.7-0.4-2.5c0,0,0.1-0.1,0.1,0C55.4,19.4,55.8,20.6,56.2,21.8z
			 M80.9,4.5c1.4,1.4,2.5,3,3.3,4.7c0.4,0.9,0.7,1.8,0.9,2.8c0.1,0.7,0.2,1.5,0,2.2c1.2,0.2,2.4,0.9,3.1,1.9c0.8,1.2,0.9,2.6,0.4,4
			c-0.2,0.6-0.6,1.2-1,1.7c-0.5,0.5-1.2,1.1-1.9,1c0,0-0.1,0-0.1,0c0.1,1.3-0.1,2.7-0.4,4l0,0.2c-0.1,0.7-0.3,1.4-0.5,2.1l0,0
			c-0.2,0.7-0.4,1.5-0.9,2c-0.3,0.3-0.9,0-0.9-0.4c-0.1-0.7,0.4-1.4,0.6-2l0.1-0.2c0.2-0.6,0.4-1.2,0.7-1.8c0.5-1.3,0.9-2.7,1.4-4
			c-0.3-0.2-0.5-0.5-0.3-0.8c0.3-0.5,0.8-0.7,1.1-1c0.3-0.3,0.6-0.7,0.7-1.1c0.3-0.8,0.3-1.8-0.1-2.5c-0.5-0.8-1.3-1.3-2.2-1.5
			c-0.5-0.1-0.9-0.1-1.4-0.1c-0.5,0.1-1.2,0.2-1.5,0.6c0,0-0.1,0-0.1,0c0.1-0.7,0.4-1.2,1-1.5c0.4-0.2,0.9-0.4,1.4-0.4
			c-0.2-0.4-0.4-0.8-0.5-1.2l-0.1-0.4c-0.2-0.7-0.5-1.5-0.8-2.2c-0.6-1.4-1.4-2.7-2.5-3.9c-2-2.3-4.8-4-7.8-4.5
			c-3-0.6-6.2-0.1-9,1.2c-2.7,1.3-4.8,3.5-6.2,6.1c-0.8,1.5-1.3,3.1-1.5,4.8c-0.1,0.8-0.3,1.7-0.3,2.5l0,0.3c0,0.3,0,0.7,0,1
			c0,0.4-0.1,0.9-0.1,1.3c0,0.1-0.1,0.1-0.1,0c-0.1-0.4-0.4-0.7-0.5-1c-0.1-0.4-0.2-0.8-0.3-1.2c-0.2-0.8-0.2-1.6-0.2-2.4
			c0-1.6,0.5-3.3,1.1-4.8c1.2-3.1,3.5-5.8,6.4-7.5c3-1.8,6.6-2.5,10-2.1C75.3,0.5,78.5,2.1,80.9,4.5z M85.6,17.5
			c-0.4,0.3-0.8,0.7-1.1,1.2l0,0l0,0c0.1,0.1,0.2,0.3,0.3,0.4c0,0.1-0.1,0.2-0.2,0.2c-0.1,0-0.2-0.1-0.3-0.1
			c-0.1,0.3-0.2,0.6-0.1,0.8l0,0c0,0.9-1.5,0.7-1.2-0.1c0.2-0.7,0.5-1.3,1-1.9C84.4,17.7,84.9,17.6,85.6,17.5
			C85.6,17.4,85.7,17.5,85.6,17.5z"/>
	</g>
	<g id="accessories_x2F_Glasses">
		<path id="_xD83D__xDD8D_-Ink_2_" style="&st3;" d="M57,22.5c-0.6-1.4-1.1-3.1,1-3.6c1.1-0.3,2.2-0.5,3.3-0.2
			c1.1,0.3,1.7,1.3,1.9,2.3c0,0.2,0.2,0.3,0.3,0.4C64,26.2,59,27,57,22.5 M63.7,18.5c-0.2,0.1-0.5,0.1-0.7,0.3
			c-0.4-0.4-0.8-0.7-1.3-0.8c1.6-0.3,3.3-0.6,4.9-1c-0.4,0.4-0.7,0.9-0.7,1.4C65.2,18.1,64.3,18.3,63.7,18.5 M67.2,20.3
			c-1.7-2.3-0.1-3.5,2.3-4.1c1.3-0.3,2.9-1,4.2-0.5c1,0.7,1.7,3.9,1.2,5.5C74.6,22.1,70.7,26.1,67.2,20.3 M54.2,20.6
			c-0.9,0.7,1.4,0.7,1.5,0.1c0.2,1.9,1.8,4.8,4.1,5.2c2.7,0.5,4.8-1.9,4-4.7c0.5-0.3-0.3-1.6-0.6-2.1c0.9-0.4,1.7-0.7,2.6-0.6
			c-0.1,1.5,2.7,5.1,4.5,5.4c1.5,0.5,4.2-0.6,5-2.3c0.5-1.3,0.3-3.8-0.6-5.3c0,0,0,0,0,0c0.1,0.3,1.9-0.3,1.7-0.7
			c2.6-0.6,5.3-0.9,7.9-1.3c0.6-0.1,0.3,0.7,0.8,0.7c0.8-0.2,0.1-1.4-0.6-1.4c-2.8,0.4-5.7,0.5-8.2,1.7c-0.5-0.4-1.1,0.2-1.5,0.3
			c-0.9-1.9-6.4-0.4-8,1c-2,0.3-4.1,0.7-6.1,1.1c-1.3-0.1-2.8,0.1-4,0.8c-0.2,0-0.2,0.1-0.2,0.2c-0.4,0.4-0.8,1-0.7,1.6
			C55.2,20.3,54.7,20.4,54.2,20.6"/>
	</g>
	<g id="facial-hair_x2F_Full">
		<path id="_xD83D__xDD8D_-Ink_3_" style="&st3;" d="M74.8,31.4c0.2,0.4,0.4,0.8,0.5,1.3c-1.1,1.9-2.8,3.3-4.9,3.8
			c-0.9-0.6-2.2-1.8-3.3-1.5c-1.2,0.3-1.3,1.9-2,2.8c0,0.1-0.1,0.1-0.1,0.2c-0.6,0.2-1.3,0.3-1.9,0.1c-0.7-0.2-1-0.6-1.4-1.2
			c0-0.1,0-0.3-0.1-0.4c-0.1-0.9-0.1-1.8,0.1-2.6c0.1-0.7,0.4-1.4,0.9-1.9c0.6-0.6,1.3-0.9,2.1-1.3c1.4-0.7,2.8-1.3,4.3-1.4
			C71.1,28.9,73.3,29.7,74.8,31.4 M59.7,35.6c0,0.3,0.4,3,1.3,4.3c0.9,1.2,2,2.3,3.2,3.1c1.1,0.8,2.4,1.3,3.6,1.3
			c1.7,0.1,3.3-0.8,4.8-1.5c1.8-0.9,3.5-2.1,5-3.5c0.8-0.7,1.5-1.4,2.2-2.2c0.7-0.7,1.4-1.5,2-2.3c0.5-0.7,0.8-1.7,1.1-2.5
			c0.5-1.3,1-2.7,1.3-4.1c0.3-1.3,0.5-2.5,0.1-3.8c-0.5-2.3-1.8-4.5-2.9-6.5c0-0.1-0.1-0.1-0.1,0c0,0,0-0.1,0-0.1
			c-0.1-0.2-0.3-0.1-0.3,0.1c0.2,2,0,3.9-0.6,5.7c-0.8,2.5-2.3,4.6-3.8,6.7c-0.1,0-0.2-0.1-0.3,0c-0.8-1.3-2.3-2.2-3.5-2.8
			c-3.7-1.6-8.5-1-11.2,1.9c-1.2,1.2-1.9,2.9-2.1,4.6C59.6,34.5,59.6,35,59.7,35.6"/>
	</g>
	<g id="face_x2F_Smile">
		<path id="_xD83D__xDD8D_-Ink_4_" style="&st3;" d="M69.1,32.6c-0.5,0.4-1.2,0.6-1.9,0.7c-0.6,0-1.3-0.1-1.9-0.4
			c-0.5-0.3-1-0.7-1.1-1.3c0-0.1,0-0.2,0-0.2c0-0.1,0.1-0.1,0.2-0.2c0.1,0,0.2-0.1,0.2-0.1c0.1,0,0.1,0,0.2,0.1
			c0.1,0.1,0.2,0.1,0.3,0.2c0.7,0.4,1.3,0.7,2.1,0.6c0.4-0.1,0.8-0.2,1.1-0.5c0.3-0.3,0.6-0.6,0.7-1l0,0c0.1-0.2,0.2-0.4,0.4-0.4
			c0.2-0.1,0.4-0.1,0.6,0c0.2,0.1,0.4,0.2,0.4,0.4c0.1,0.2,0.1,0.4,0,0.6C70.1,31.6,69.7,32.2,69.1,32.6L69.1,32.6z M64,23.4
			c-3.4,1.5-0.1,7,3.6,2.6c0.4-0.6-0.5-1.3-0.9-0.8c-0.5,0.6-1.5,2-2.6,1.3c-1-0.8-0.2-2.1,0.4-2.7C64.6,23.6,64.4,23.2,64,23.4z
			 M72.2,19.8c0.1,0.7-0.7,1.2-1.3,0.6c-0.6-0.7-0.9-1.4-1-2.2c-0.1-1,1.4-1.1,1.7-0.2C71.8,18.5,72,18.9,72.2,19.8z M60.6,20.3
			c0.8,0.4,0.8,1.6,0.5,2.3c-0.2,0.4-0.9,0.5-1.2,0.1c-0.6-0.6-1.3-2.1-0.3-2.7C59.9,20,60.2,20.1,60.6,20.3
			C60.5,20.3,60.5,20.3,60.6,20.3z M71.1,14.3c1.1,0.2,2.2,0.8,2.9,1.6c0.1,0.1,0,0.3-0.1,0.2c-1-0.3-1.9-0.7-3-0.7
			c-0.5,0-1,0-1.4,0.1c-0.6,0.1-1.1,0.4-1.6,0.1c-0.3-0.1-0.4-0.6-0.2-0.9c0.3-0.5,1-0.6,1.5-0.6l0.2,0
			C69.9,14.1,70.5,14.2,71.1,14.3z M60.9,15.8c0.1,0,0.3,0.1,0.4,0.2c0.2,0.2,0.2,0.3,0.2,0.5c0,0.2-0.1,0.3-0.1,0.4
			c-0.1,0.1-0.2,0.2-0.4,0.3c-0.7,0.3-1.4,0.6-2,1c-0.3,0.2-0.6,0.4-0.8,0.6L57.9,19c-0.2,0.2-0.4,0.3-0.7,0.5c0,0,0,0-0.1,0
			c-0.1,0-0.1,0-0.1-0.1l0,0c0,0-0.1-0.1-0.1-0.3c0.3-1.6,2.1-2.6,3.4-3.3l0.1-0.1C60.6,15.8,60.8,15.8,60.9,15.8z"/>
	</g>
</g>
</svg>
