<?xml version="1.0" encoding="utf-8"?>
<!-- Generator: Adobe Illustrator 25.2.1, SVG Export Plug-In . SVG Version: 6.00 Build 0)  -->
<!DOCTYPE svg PUBLIC "-//W3C//DTD SVG 1.1//EN" "http://www.w3.org/Graphics/SVG/1.1/DTD/svg11.dtd" [
	<!ENTITY st0 "fill-rule:evenodd;clip-rule:evenodd;fill:#FFFFFF;">
	<!ENTITY st1 "fill-rule:evenodd;clip-rule:evenodd;">
]>
<svg version="1.1" id="Layer_1" xmlns="http://www.w3.org/2000/svg" xmlns:xlink="http://www.w3.org/1999/xlink" x="0px" y="0px"
	 viewBox="0 0 213 701" style="enable-background:new 0 0 213 701;" xml:space="preserve">
<desc>Created with Sketch.</desc>
<g id="Introduction">
	<g id="variations-standing" transform="translate(-3484.000000, -1704.000000)">
		<g id="a-person_x2F_standing" transform="translate(3437.000000, 1658.000000)">
			<g id="pose_x2F_standing_x2F_shirt-3" transform="translate(-28.736217, 150.264357)">
				<path id="_xD83C__xDFA8_-Background" style="&st0;" d="M125,240.6c-0.2,1.1-0.6,2.3-0.9,3.4c1.7,1.7,4.2,3.9,6,5.5
					c-1.7-10.7,3.6-20.7,6.8-30.8c-1.2-1.6-5.5-3.2-5.3-4.9c0.3-6.4,0.8-13.6,1.5-21.7c2.4-25.2,4.7-51.4-0.9-76.6
					c-0.4-2.7-1-5.6-4.6-5.7c-10.9,43.2-2.1,86.8-2.3,130.3l0.3,0.3L125,240.6z M108.7,594.9c-8.9,0-17.2-1.6-25.1-4.9
					c-2.3-0.8-5.2-1.8-5.5-3.4c-0.7-4.4-0.2-8.8,0.3-13.4c0.8-7.9,0.7-14.1,2.8-22.6c2.3-7.9,4.2-14.1,2-22.3
					c-0.2-2.4,1.7-4.9,3-7.2c1.8-3.3,2.7-6.8,4.1-10.2c-2.8-0.5-5.7-1.2-8.4-2l-0.4,1.6c-0.1,0.4-0.4,0.5-0.8,0.5
					c-0.3,0-1-0.1-1.1-0.7c0.4-6.2,1-12.5,1.7-18.8c6.6-61.1,16.7-111.4,33.6-161.7c4.1-11.8,8.2-24,8.2-36.8
					c-2.3-0.5-4.9-0.8-7.2-0.5c-16.7-3.9-13.4-39.2-12.8-49.8c-1.2-0.4-2.5-0.9-3.5-1.5l-0.4,0.2c-16.6-41.2-9.8-109.3-6-155
					c2.5-16.5-1-46.2,13.6-54.3c11.8-4.2,23.6-6.5,35.9-9.3c2.3-1.3,5.1-2.1,7.7-2.9L149,18c-1.7-2.4-1.5-7.2,0.8-8.9
					c1.4,0.1,3.3,1.5,4.7,2.1c1.9-3.9,3.7-8.1,4.9-12.8l0.5,0.2c1.3-13.4,18.7-15.7,28.5-11.2c10.7,5.9,5.1,19.1,10,28.7l1.8-2.3
					c2.7-0.1,8.5,3.5,9.9,4.9c1,0.5,0.3,3.6,0.4,4.8c14.4,3.2,34,4.1,38.6,20.2c7.6,30.2,6.5,61.2,15.1,91.4
					c9,24.4,22.3,54.3,22.4,76.7c0.3,4.2,0.8,27.9-2.7,27l-2.3,2.3c3.1,5,0.6,12.4-0.6,18.3c-3,12.5-8.7,26-21,20
					c-13.2,73-46.5,146.6-35.2,221.9c0.1,0.4-0.1,0.9-0.6,0.7l-0.6-0.3c-1.4,0.4-3.3,0.6-4.8,0.9c1.3,4.8,2,9.5,2.6,14.9
					c0.8,0.5,0.4,1.8,0.5,2.5c12.1-0.6,18.8,12,27.5,18.9c5.7,5.1,12.2,9.9,19.3,14.4c5.9,3.3,10.8,7.1,9.9,13.4
					c0.1,0,1.9-0.3,2-0.3c2.7,9.1-6.2,11-15.5,12.1c-22.6,2.3-41.9-2.7-68.1-12.2c-3.2,0.4-5.7-4.4-6.1-7.6
					c-0.4-2.2,0.8-4.4-0.1-6.7c-3.2-6.7-4.8-24.4-0.3-32.3c1.6-1.8,3.6-3.5,3.3-6.6c-0.1-3.1-0.4-6.2-0.1-9.3
					c-5.3-0.5-10.6-1.7-15.3-3.5c-0.8,0.3-1.8-0.1-1.8-1.1c-0.9-14.2-2-29.8-2.2-44.4c-1.1-31.7,6.2-62.7,11.8-93.4
					c0.4-9.9,2.2-19.4,2.8-29.3c0.6-9.4,0.7-18.5,1.3-27.9l-3.2-0.7c-26.6,68.6-47.5,137.2-62.1,204.3c0.3,0.3,1.3,0.6,1.2,1.2
					c0,0.3,0,0.3-0.2,0.4c-3.5,0.7-7,1.2-10.5,1.6c1,8.4-4.3,18.1,0.4,25.9c1.2,1.9,1.3,2.3,0.5,3.6c6.8,12.6,11,23.1,13.7,34.3
					l1.8-1.5c2.5,1.8,2.6,5.3,2.7,9c-0.2,2.1,0.9,4.4-0.7,6.2C129.7,593.1,116.2,594.8,108.7,594.9L108.7,594.9z"/>
				<path id="_xD83D__xDD8D_-Ink" style="&st1;" d="M158.2-3.6c1.8,1.5-0.1,12.3-1.6,14.5c10.1,6.5,20.3,12.8,30.7,18.7l1.1,0.6l0,0
					c0.4,0.2,1.2,0.4,1.6,0.3l0.3-0.1c0.1,0,0.1,0,0.1,0c0.2-0.1,0.3-0.2,0.5-0.3c3-2.7,5.1-7.3,7.4-10.8c-4-3.5-2-10.3-1.8-14.9
					c0.7,0,0.8,2.3,1,3l0.1,0.7c0.3,1.5,0.6,3.1,1.2,4.5c1.7-2.2,10.4,2.9,12,4.6c1.8,1.1,1.2,3.1,1.2,4.9
					c16.4,3.2,37.4,5.4,39.6,26c2.6,11,4,22.3,5.3,33.5l0.2,1.8c2.2,19.4,4.2,39,10.6,57.5l2.4,5.8c5.2,12.5,10.3,25.1,13.7,38.3
					c2.6,5.6,9.5,59.2-0.9,55.1c3.6,5.8,0.9,13.4-0.3,19.6c-2.6,10.2-7.7,26.7-21.4,21.8c-10.3,55.2-30.8,108.4-36,164.6
					c-1.7,18.3-1.6,36.7,1.2,54.9c0.4,1.7-1.3,3.2-3,2.5c-0.8,0.2-1.7,0.3-2.6,0.5c1,4,1.6,8.2,2.1,12.3l0.1,0.5l0,0
					c0.4,0.5,0.6,1,0.6,1.7c6.3,0,11.5,4.1,15.7,8.4c7.2,7.6,14.9,14.8,23.6,20.7c6.2,5,17.1,8,17.4,17.3c3.2-0.5,2.4,6.4,1.8,8.2
					c-0.7,2-2.6,3.2-4.4,4.1c-26.4,8.8-55.4,0.2-80.5-9.2c-4.4,0.6-7.5-5.2-8-9.1c-0.5-2.1,0.6-4.2,0-6.2l-0.2-0.6
					c-0.8-2.1-1.5-4.1-2-6.3l-0.1-0.5c-1.1-7.6-1.9-20.4,2.1-26.7c4.7-4.1,2.3-7.9,2.8-13.3c-4.7-0.5-9.3-1.6-13.7-3.3
					c-1.7,0.4-3.2-1-3.3-2.7l-0.2-2.7c-0.9-13.9-1.8-27.8-2-41.8c-1.1-31.6,6.1-62.6,11.8-93.5c0.6-11.9,2.8-23.7,3.2-35.6
					c0.2-7.2,0.5-14.4,0.9-21.6c-25.6,66-46.7,133.8-61.8,202.9c1.4,0.9,1.5,3.5-0.5,3.9c-3,0.6-6.1,1.1-9.1,1.5
					c0.5,7.4-3.9,17.5,0.2,23.8l0.2,0.3c0.8,1.2,1.5,2.6,0.7,4c5.3,10,9.9,20.4,12.8,31.4c3.2-1.3,5.1,5.3,5,7.6
					c-0.2,3.1,1.5,8.4-1.2,10.5c-14.2,9.1-33.4,7.7-48.8,2.7c-2.9-1.2-6.1-2.1-8.6-4c-1.1-1.1-1-3-1.1-4.4v-0.8
					c-0.1-4.2-0.1-8.5,1-12.6c-0.3-6,0.6-12.1,1.8-18c0.8-4.7,2.9-9.2,3.2-14c1.5-4.3-1.2-8.3-0.5-12.6c0.6-2.6,2.5-4.9,3.6-7.3
					l0.1-0.2c1-2.2,1.7-4.5,2.6-6.8c-1.7-0.3-3.3-0.7-4.9-1.2c-0.8,2.8-5.3,2-5.1-0.8c3.7-46.2,11-92.2,22.4-137.1
					c5.3-26.6,19-51.4,21.1-78.5c-1.6-0.3-3.5-0.4-5.1-0.2h-0.2c-1,0.1-2,0.3-3.1-0.2c-14.1-8.7-12.7-35.4-11.6-50.1
					c-0.6-0.2-1.2-0.5-1.8-0.8c-0.5,0.4-1.2,0.4-1.5-0.3c-0.7-1.7-1.7-3.4-2.3-5.1c-16.8-56.3-6.3-115.5-3-172.9
					C94.3,53,94.3,37,106,30.5c3.9-1.9,8.4-2.7,12.6-3.7c9.6-2.9,19.7-4.1,29-7.8c-2.2-3-1.7-7.4,0.2-10.4c1.4-2.2,4.2-0.5,5.9,0.4
					C155.6,5,156.9,0.7,158.2-3.6z M131.4,574.4l0.1,0.4c0.5,2.2,0.9,4.4,0.6,6.6c6.1,5.9-22,6.7-25.1,6.7c-7.1-0.1-28-2.4-29-11
					v0.2c0.1,2.7-0.3,7.8,1.2,9.8c11.2,5.8,24.2,8.1,36.7,6.7l0.4-0.1c5-0.7,14.5-2.7,16.9-6.9C132.8,583,134.1,577.5,131.4,574.4z
					 M111.2,536.1c-6.8-7.4-18.1-2-25.3,2.1c-0.3,3.3-2.6,4.5-2.7,7.9c-1.5,10.4-5.1,22.2-0.6,32.3c13.5,7.2,29.5,6.7,44,3.6
					c0.4-0.5,0.9-0.6,1.6-0.8c0.4-3.1-0.4-6.1-1-9.1c-1.5-6.2-3.3-12.4-5-18.5c-3-1.9-4.1-6-5.7-9.1c-0.4-0.9-0.9-1.7-1.3-2.6
					C112.8,541.1,112.1,538.2,111.2,536.1z M191.4,556.6c-0.7,7.5,6.6,10.5,12.5,12.3c6.7,2.4,13.5,4.3,20.4,6
					c14.1,3.6,28.8,5.2,43.2,2.9h0.3c4.2-0.7,11.6-1.6,12.6-6.4v-0.1c0.1-0.8,0.2-3.8-0.1-4.5c-0.1,0-0.2,0-0.3-0.1
					c-1.2,3.9-5.6,6.2-9.8,6.8c-2,2-5.7,1.3-8.3,1.4c-17.6-0.2-34.5-5.6-51.1-10.7C205.3,562.4,194.7,561.1,191.4,556.6z M192.9,518
					c-3.1-1.1-3.6,7.5-4,9.5c-1,8.8-1,22.5,6.2,28.8c7.5,3.2,15.5,4.6,23.2,7.2l1.8,0.5c14.6,4.3,29.6,8.2,44.9,7.6
					c1.2-2.3,8.5-0.4,11.3-4.5c3.7-6.5-5.7-10.7-10.2-13.5c-8.6-5.5-16.6-11.9-23.9-19.1c-3.4-3.4-6.5-7.3-10.5-10l-0.2-0.1
					c-3.4-2.3-7.8-3.7-11.8-2.2c-3.9,1.4-5.4,5.9-8.6,8.2c-7.3,4.7-14.8-2.8-17.2-9.5l-0.1-0.2c-0.1-0.2,0.1-0.3,0.3-0.3
					c0-0.1,0-0.1,0-0.2C193,520,193,518.8,192.9,518z M88.8,512.2c1,5.4-1.7,10.2-3.8,15c-0.5,3.2,1.4,6.2,1,9.4
					c6.6-5.2,16.6-9.7,24.5-5c0-4.6,1.6-9,3-13.3l0.6-1.7c0.4-1.3,0.9-2.6,1.4-4C106.5,513.6,97.6,513.7,88.8,512.2z M218.3,504.3
					c-7.7,1.1-15.6,1.7-23.4,1.2l0.9,13.4l0,0c0,0.5-0.2,0.9-0.5,1.1c1.1,4.4,4.8,8.2,9.3,9.2c6.9,0.9,7.9-8.3,13.7-10
					c-1.1-2.5-0.3-5.8-0.4-8.6C218,508.6,218.1,506.4,218.3,504.3z M192.8,516.4c-0.1,0.3-0.3,0.6-0.5,0.9c0.2,0,0.4,0.1,0.6,0.2
					C192.9,517.2,192.9,516.8,192.8,516.4z M123.1,243.1c-6.8,2.3-14.2,2.8-21.2,1c1.5,11.5,3.1,38.6,12.8,45.2
					c1.6-0.2,3.3-0.4,5-0.2c1,0.1,2,0.3,3,0.4c0.4,0.1,1.1,0.1,1.6,0.1h0.1c-0.1,0-0.2,0-0.1,0h0.2h0.1c3.4-0.3,6.4-5.1,9.8-2.8
					c0.5-0.7,1.2-1.2,1.8-1.9c2.5-4.4-0.2-10.2,1.5-14.8c-0.6-0.9-0.4-2.2,0.6-2.9c1.6-1.4,4.9-0.4,5.8-2.4c-0.1,0.1-0.1,0,0-0.1
					l0,0l-0.2-0.1c-6.9-5.7-13.6-12.1-18.2-20.1l-0.2-0.3C124.7,245,123.2,244.3,123.1,243.1z M281.4,239.2
					c-4.8,2.6-9.9,4.5-15.2,5.6c-1.1,10.5-2.4,20.9-4.1,31.3l0.4,0.1c2.4,0.4,4.9,1,6.9-0.6c6.8-6.6,9.2-19.8,11.9-28.7l0.1-0.4
					C282,244.2,282.6,241.2,281.4,239.2z M212,22.8c-0.7,3.6,3.2,42.2-3.9,35.6c-4.8-7.6-10.4-14.7-15.3-22.2
					c-0.7,2.7,1.3,5.9,0.4,8.2c12.6,63,21.7,127,25.1,191.2c5.6,3.9,10.5,8.6,15.2,13.4c1.5,1.3,2.6,3.3,4.4,4.1
					c7.5-8.5,16.2-15.8,24.1-24c-0.1-0.6-0.2-1.1-0.3-1.7c-0.4-2.3,2.6-3.5,3.7-2.1c2.4-6.1,2.6-13.2,2-19.7
					c-1.2-11-5.3-21.4-8.2-32c-8.4-32.3-14.3-66.2-11.5-99.7c0-0.3,0.5-0.3,0.5,0c2.3,35.3,5.9,70.8,16.5,104.8l0.3,0.8
					c4.2,13.7,9.3,28.3,5.7,42.7c0.3,1.9-0.6,3.9-2,5.3c-0.6,1.5-1.3,3-2.2,4.4c0.3,3.3,0.1,6.6-0.1,9.8c5.5-1.2,10.6-3.4,15.5-6.1
					c0.3-1.6,0.5-3.3,0.7-5c3.8-30.7-7.8-60.6-19.3-88.5c-11-32.5-8.9-67.8-18.1-100.7C239.4,28.8,223.5,27.8,212,22.8z M149.6,20.4
					l-0.4,0.1c-2.7,0.9-5.3,2-8.1,2.1c-8.9,3-18,5.2-27.1,7.7l-0.9,0.2c-3.9,1.1-7.8,2.3-10.4,5.5c-2.5,3.1-3.5,7.1-4.4,10.9
					c-3.8,33.4-6,67.1-7.9,100.6c-1,27.9-0.4,56.4,6.7,83.6c1,3.7,2.2,7.5,2.7,11.3c0.5,0,1,0,1.6,0.1c0-0.3,0.4-0.2,0.4,0
					c7,1.1,14.2,0.4,20.7-2.2c-1.6-49-12.1-102.1,11.6-147.5c0.1-0.2,0.4-0.1,0.3,0.1l-0.6,1.7c-1.9,5.4-3.7,10.9-5,16.5
					c1.9-0.3,3.3,4.1,3.6,5.2c10.3,31.2,3.9,64.4,2.6,96.4c17.7,12.9,35.6,25.5,54,37.3c8.4-5.4,15.8-12.5,24.4-17.4
					c-2.5-66.1-16-131.6-23.3-196.9c-2.7,3.4-5.5,6.7-8.3,10.1c-3.6,4.4-7,8.8-10.5,13.3c-0.7,0.9-2.3,0.6-2.8-0.4
					C161.6,46.3,157.2,32.5,149.6,20.4z M128.7,111.7c-10.2,42-1.7,85.2-1.9,127.6c0.8,0.7,0.5,1.9-0.4,2.4
					c-0.1,0.6-0.3,1.2-0.5,1.7c0.7,0.7,1.4,1.3,2.2,2c-0.6-9.2,4.1-17.6,6.8-26.3c-1.9-1.7-5.6-2.8-5.1-6c0.4-6.9,0.9-13.7,1.4-20.6
					l0.4-3.8c2.3-24.3,4.2-49-1.1-73v-0.2C130.3,114.5,129.9,111.9,128.7,111.7z M281.9,238.9L281.9,238.9l0.1,0.2
					C281.9,239.1,281.9,239,281.9,238.9z M220.8,224.6c-2.4-2.3,1.3-6,3.6-3.6C226.8,223.3,223.1,227,220.8,224.6z M219.2,197.1
					c-0.5-1.4,0.9-3.5,2.5-2.6l0,0l0,0c1.5,0.9,0.9,2.6,0.1,3.7C220.9,199.1,219.7,198,219.2,197.1z M217,165.4
					c-4.1-5.4,4.5-7.6,3.1-1C219.8,165.7,217.3,167.5,217,165.4z M210.9,135.4c-2.2-2.7,2.5-5,3.5-1.8
					C215,135.7,212.3,137,210.9,135.4z M232.8,69.3c1.3,0.2,7.8-1.1,6.2,1.6c2.6,13.1,10,29.1-0.5,40.6l-0.1,0.1
					c-1.6,1.6-4.1,5.2-6.4,3.7c-5.3-4.5-12.1-7.6-16.2-13.3c-1.7-4.5-0.3-9.5-0.7-14.2c-0.2-5.9-1.2-11.8-1.4-17.7
					c0-0.3,0.3-0.4,0.5-0.3C220.3,69.3,226.5,69.4,232.8,69.3z M214.3,70.2c2.8,9.1,2.9,18.9,2.8,28.3c0,1,0.2,1.9,0.7,2.7
					c4,4.7,9.7,7.7,14.5,11.6c1.9-1.3,3.5-2.9,4.8-4.7c8.4-10.9,0.8-24.7,0.8-36.9h-1.1C229.4,71.3,221.8,71.2,214.3,70.2z
					 M208,104.1L208,104.1c3,0,2.3,4.9-0.4,4.2C205.3,107.8,205.6,104.1,208,104.1L208,104.1z M202.3,79.2c-2-3.4,4.6-4.7,3.9-0.8
					v-0.2v-0.1v0.4l0,0C206,80.3,202.5,81.6,202.3,79.2z M197.9,51.1c1.8-0.5,3.2,2.1,1.6,3.2C197.2,56.1,195.2,51.7,197.9,51.1z
					 M153,11.4l-0.2-0.2c-2.4-2.2-4.2-3.3-4.7,1.2c-0.4,2.2-0.1,4.9,2,6.2c10,9.9,13.8,24,20.2,36.1c5.8-7,11.2-14.4,16.9-21.5
					c-7.8-4.7-15.6-9.4-23.2-14.3C160.4,16.4,156.4,14.2,153,11.4z M203.4,17.2c-3,4.9-5.8,10.2-9.6,14.5c-0.5,0.5-1,0.9-1.5,1.2
					c0.8-0.2,1.7,0.3,1.7,1.2c5.6,5.6,10.2,12,14.5,18.6c0.8-10.8-0.8-21.7-0.1-32.5C206.9,18.8,205.2,17.9,203.4,17.2z"/>
			</g>
		</g>
	</g>
</g>
<g id="head_x2F_mono_x2F_No-Hair-1">
	<path id="_xD83C__xDFA8_-Background_1_" style="&st0;" d="M135,48.9c-2.1-8.9-6.7-17.1-14.1-23.8c-22.2-21.9-62.9-10-62.7,23
		c-0.8,3.9-1.1,7.8-0.9,11.8c0.1,1.7,0.8,4-0.1,5.5c-2.2,2.8-3.5,4.9-2.7,8.7c0.6,3.3,2.9,5.6,5.9,6.8c1.8,0.5,3.5,1.6,4.2,3.4
		c4,7.4,7,13.5,13.4,18.5c1.6,1.3,18.4,9,24,9c16.2,0,36.6-5.9,37-24c0.1-4-0.6-8-1.1-11.9C136.7,67,137.1,57.6,135,48.9z"/>
	<path id="_xD83D__xDD8D_-Ink_1_" style="&st1;" d="M134.7,44.5c0-0.1,0.2-0.1,0.2,0c0.6,2.1,0.9,4.3,1.4,6.5
		c0.5,2.1,0.9,4.2,1.2,6.3c0.7,4,1.2,8,1.8,12l0.1,1c0.9,7,2.4,14.4,1.1,21.4c-1.1,6-4.9,10.9-9.8,14.5c-4.6,3.4-10.2,5.5-15.8,6.8
		c-6,1.3-13,1.7-17.9-2.7c-1.9-1.8,0.7-5.2,2.8-3.6c5,3.7,11.2,2.6,16.8,1.1h0.2c4.9-1.3,9.8-3.3,13.7-6.6c4.3-3.7,6.4-8.8,6.7-14.4
		c0.1-3.2-0.2-6.3-0.5-9.4v-0.3c-0.4-3.6-0.7-7.2-1.1-10.8c-0.3-3.3-0.6-6.6-0.7-9.9l-0.1-1.7C134.7,51.2,134.5,47.8,134.7,44.5z
		 M76.6,16.7c8.1-4.2,17.3-5.7,26.3-4.3c8.6,1.4,16.5,5.8,22.4,12.2c2.9,3.1,5.4,6.7,7.1,10.6c0.8,2,1.4,4,1.8,6.1
		c0.2,1.1,0.3,2.2,0.4,3.3c0,1-0.3,2-0.2,3c0,0.2-0.2,0.2-0.3,0c-0.3-1.1-1-2-1.4-3.1c-0.3-0.8-0.7-1.6-1-2.4l-0.3-0.7
		c-0.9-2-2-3.9-3.1-5.7c-2.2-3.8-5-7.2-8.2-10.1c-5.7-5.1-13.1-8.4-20.7-9c-8-0.6-16,1.3-22.8,5.5S64.7,32.8,62,40.3
		c-1.3,3.8-2.1,7.7-2.3,11.8c-0.1,2,0,4.1,0.1,6.1l0.1,1c0.1,1.2,0.1,2.3,0,3.5c1.2-0.4,2.5-0.5,3.8-0.4c1.9,0.3,3.1,1.1,3.9,2.8
		c0,0.1,0,0.2-0.1,0.1c-1.1-0.6-2.9-0.3-4.1,0c-1.2,0.3-2.3,0.8-3.4,1.5c-1.9,1.3-3.4,3.4-3.8,5.7c-0.4,2.3,0.6,4.6,2.1,6.2
		c0.8,0.8,1.8,1.6,2.8,2c1.3,0.5,2.6,0.5,3.8,1.4c0.7,0.6,0.5,1.5,0.1,2.1c2.4,2.7,4.6,5.6,7,8.3c1.1,1.2,2.2,2.5,3.3,3.8l0.4,0.5
		c1.1,1.3,2.8,2.7,3.3,4.3c0.3,1-0.8,2.4-1.9,1.9c-1.7-0.7-2.9-2.6-4-4L73,98.8c-1.2-1.5-2.3-3-3.2-4.7l-0.3-0.5
		c-1.8-3-3.5-6-4.6-9.3c-0.1,0.1-0.2,0.1-0.2,0.2c-1.6,1.2-4,0.3-5.6-0.5c-1.5-0.7-2.9-1.8-4-3c-2.4-2.8-3.5-6.4-2.7-10
		c0.7-3.1,2.8-6,5.6-7.6C56.5,62,56,60,55.6,58c-0.5-2.5-0.5-5-0.4-7.5c0.2-5,1.5-10,3.5-14.6C62.3,27.7,68.6,20.8,76.6,16.7z
		 M59.6,71.6c1.7-0.3,3.3-0.4,4.9,0.3c1.8,0.8,3,2.1,4.2,3.6c1.3,1.7-2.1,3.6-2.9,1.3v-0.1c-0.2-0.7-0.6-1.3-1.2-1.9
		c-0.2,0.2-0.4,0.4-0.6,0.6c-0.3,0.1-0.7,0-0.8-0.3c-0.1-0.4,0-0.9,0.2-1.3l0,0l0,0c-1.2-0.9-2.6-1.6-3.8-1.9
		C59.5,71.8,59.5,71.6,59.6,71.6z"/>
</g>
<g id="accessories_x2F_Glasses">
	<path id="_xD83D__xDD8D_-Ink_2_" style="&st1;" d="M136.6,57.1c-0.5,14-14.5,17.1-18.6,3.7c0.4-0.2,0.6-0.6,0.5-1.3
		c-0.3-3,0.2-6.2,2.7-8.2c2.6-2,5.8-2.6,9-2.9C136.4,47.7,136.8,52.8,136.6,57.1 M114.9,53.5c-1.9,0.1-4.4,0.5-6,1.8
		c-0.6-1.2-2-2.4-3.3-3c4.6-0.4,9.3-1.4,14-2.3c-1,0.9-1.9,2.1-2.5,3.5C116.5,53.4,115.6,53.5,114.9,53.5 M107.3,61.9
		c-3.3,19-17.5,12.5-19.2,10.3c-3.1-3.6-4.6-13-2.6-15.8c3-2.7,7.7-2.6,11.5-3.1C104.1,52.6,109.4,54.2,107.3,61.9 M142.1,49.4
		c-1.5,0-3,0.1-4.3,0.9c-0.6-1.7-2.1-3-3.6-3.5c-0.2-0.2-0.2-0.3-0.8-0.2c-3.9-0.7-8,0.4-11.4,1.9c-5.6,1.1-11.5,2.2-17.2,3.5
		c-5.6-1.8-21.8-0.3-22.2,5.7c-1.3,0-3.5-0.8-4.5,0.7c-7.9-0.4-15.8,2.3-23.5,4c-1.9,0.6-2.5,4.6-0.3,4.3c1.2-0.5-0.3-2.4,1.4-2.8
		c7.5-1.7,14.7-3.7,22.3-4.7c-0.1,1.3,5.2,0.8,5.2,0.1l0,0c-0.8,5,1.2,11.9,3.9,14.7c3.8,3.6,12.2,3.8,15.6,0.8
		c4.5-2.9,8.1-15.3,6.3-19c2.4-1.1,5-1.1,7.6-1c-0.4,1.8-1,6.1,0.6,6.3c0.7,8.3,8.8,12.6,15.4,8.5c5.7-3.5,6.8-12.7,5.5-18
		C139.1,52.8,145.2,50.5,142.1,49.4"/>
</g>
<g id="facial-hair_x2F_Full">
	<path id="_xD83D__xDD8D_-Ink_3_" style="&st1;" d="M97.8,94.7c2.1-5.3,6.8-9.3,12.2-10.7c4-1.1,8.1-1,12.1-0.6
		c2.1,0.2,4.4,0.4,6.4,1.2c1.7,0.7,3.1,2.1,4.1,3.6c1.2,1.9,2.1,4,2.7,6.2c0.1,0.3,0.2,0.6,0.2,0.9c-0.3,1.7-0.8,3.1-2.2,4.1
		s-3.1,1.4-4.8,1.6c-0.2-0.1-0.3-0.2-0.5-0.3c-2.6-1.6-4.5-5.4-7.8-4.8c-2.9,0.5-4.9,4.4-6.6,6.7c-5.6,0.7-11.2-1.1-15.8-4.5
		C97.6,97,97.6,95.8,97.8,94.7 M139.4,90.6c-0.4-1.3-1-2.6-1.7-3.9c-2.2-4-5.6-7.3-9.7-9.1c-9.6-4.4-21.9-1.3-29.7,5.9
		c-2.6,2.4-5.3,6-6.1,9.9c-0.2,0.1-0.5,0.2-0.7,0.4C86,90,80.3,86.4,75.8,81.3c-3.3-3.8-5.5-8.2-6.9-13.1c-0.1-0.4-0.7-0.3-0.7,0.1
		c0,0.1,0,0.2,0,0.3c-0.1-0.2-0.3-0.1-0.4,0.1C67,74.6,66.1,80.9,67,86.9c0.5,3.6,2,6.2,4.1,9c2.2,3,4.7,5.8,7.2,8.5
		c1.6,1.7,3.3,3.7,5.2,4.9c2.3,1.5,4.9,2.6,7.3,3.7c2.5,1.1,5,2.2,7.6,3.1c5.1,1.8,10.4,3.1,15.8,3.7c4.3,0.4,9.2,0.9,13.4-0.8
		c3.2-1.3,5.7-3.7,7.8-6.6c2.2-3.1,4-6.7,4.9-10.5C141.2,98.1,139.6,91.3,139.4,90.6"/>
</g>
<g id="face_x2F_Smile">
	<path id="_xD83D__xDD8D_-Ink_4_" style="&st1;" d="M113.6,92.7c-1.7-0.5-3.3-1.4-4.6-2.6c-0.4-0.4-0.6-0.9-0.6-1.4s0.3-1.1,0.7-1.4
		c0.4-0.4,0.9-0.6,1.5-0.6c0.5,0,1,0.2,1.4,0.7l0.1,0.1c0.7,0.8,1.7,1.4,2.7,1.7c1,0.3,2,0.4,3,0.1c2-0.5,3.2-1.7,4.5-3.4
		c0.2-0.2,0.3-0.4,0.5-0.6c0.1-0.2,0.2-0.3,0.4-0.4c0.2-0.1,0.4-0.1,0.6-0.1s0.4,0.1,0.5,0.3c0.1,0.1,0.2,0.3,0.2,0.6
		c0.1,1.5-0.6,3-1.6,4.2c-1.1,1.3-2.7,2.4-4.2,2.8C117.1,93.1,115.3,93.1,113.6,92.7L113.6,92.7z M116.6,67c2,0.9,5.1,3.1,3.5,6.1
		c-2,2.7-5.7,0.4-7.5-0.7c-1.7-0.8-3.1,1.9-1.5,2.9c13.1,7.2,15.9-9.3,6.3-9.7C116.3,65.6,116.1,66.8,116.6,67z M93.9,59.6
		c-0.1-2.5,3.7-3.6,4.4-1.2c0.6,2.2,0.5,4.2-0.3,6.4c-0.7,2-3.3,1.4-3.7-0.3C93.8,62.3,94,61.2,93.9,59.6z M123,54.8
		c0.4-0.8,1.2-1.3,2.1-1.2c3,0.5,2.7,4.6,1.9,6.7c-0.4,1.1-2.2,1.6-3.1,0.8c-1.5-1.4-2.5-4.4-1.1-6.1C122.9,55,123,54.9,123,54.8z
		 M95.8,48.3l0.4-0.1c1.4-0.4,3.1-0.9,4.3,0.1c0.6,0.5,0.9,1.6,0.3,2.3c-1.1,1.2-2.6,0.9-4.1,1.2c-1.2,0.2-2.4,0.6-3.6,1.1
		c-2.5,1.1-4.5,2.7-6.5,4.5c-0.3,0.2-0.6-0.1-0.5-0.4c1-2.7,3.2-5,5.6-6.6C93,49.5,94.4,48.7,95.8,48.3z M119,44.2h0.4
		c3.9,0.3,9.1,1.2,11.3,4.7c0.1,0.5,0.1,0.6,0,0.7l0,0c0,0.1-0.1,0.2-0.3,0.3c-0.1,0-0.1,0-0.2,0c-0.9-0.1-1.5-0.3-2.2-0.5l-0.7-0.2
		c-0.8-0.3-1.7-0.6-2.6-0.7c-1.9-0.4-3.8-0.5-5.7-0.5c-0.4,0-0.8-0.1-1.2-0.3c-0.3-0.2-0.6-0.5-0.7-0.9c-0.2-0.5-0.2-0.9,0-1.4
		c0.2-0.4,0.5-0.7,0.8-0.9C118.2,44.3,118.6,44.2,119,44.2z"/>
</g>
</svg>
